<svg width="360" height="640" viewBox="0 0 360 640" fill="none" xmlns="http://www.w3.org/2000/svg">
<rect width="360" height="640" fill="#F3F5FF"/>
<g filter="url(#filter0_dd)">
<rect x="24" y="152" width="312" height="56" rx="16" fill="white"/>
</g>
<path d="M48.48 184L52.608 172.8H54.032L58.144 184H56.72L55.696 181.12H50.928L49.888 184H48.48ZM51.328 180.032H55.296L53.312 174.496L51.328 180.032ZM59.729 184V172.48H61.073V184H59.729ZM66.8439 184.192C66.0865 184.192 65.4145 184.021 64.8279 183.68C64.2412 183.328 63.7772 182.843 63.4359 182.224C63.1052 181.605 62.9399 180.875 62.9399 180.032C62.9399 179.2 63.1052 178.475 63.4359 177.856C63.7665 177.227 64.2252 176.741 64.8119 176.4C65.4092 176.048 66.0972 175.872 66.8759 175.872C67.6439 175.872 68.3052 176.048 68.8599 176.4C69.4252 176.741 69.8572 177.195 70.1559 177.76C70.4545 178.325 70.6039 178.933 70.6039 179.584C70.6039 179.701 70.5985 179.819 70.5879 179.936C70.5879 180.053 70.5879 180.187 70.5879 180.336H64.2679C64.2999 180.944 64.4385 181.451 64.6839 181.856C64.9399 182.251 65.2545 182.549 65.6279 182.752C66.0119 182.955 66.4172 183.056 66.8439 183.056C67.3985 183.056 67.8625 182.928 68.2359 182.672C68.6092 182.416 68.8812 182.069 69.0519 181.632H70.3799C70.1665 182.368 69.7559 182.981 69.1479 183.472C68.5505 183.952 67.7825 184.192 66.8439 184.192ZM66.8439 177.008C66.2039 177.008 65.6332 177.205 65.1319 177.6C64.6412 177.984 64.3585 178.549 64.2839 179.296H69.2759C69.2439 178.581 68.9985 178.021 68.5399 177.616C68.0812 177.211 67.5159 177.008 66.8439 177.008ZM71.2103 184L73.9623 180.032L71.2103 176.064H72.6663L74.8903 179.344L77.1303 176.064H78.5703L75.8183 180.032L78.5703 184H77.1303L74.8903 180.72L72.6663 184H71.2103ZM84.2934 184V172.8H85.6374V182.928H90.8534V184H84.2934ZM95.8439 184.192C95.0865 184.192 94.4145 184.021 93.8279 183.68C93.2412 183.328 92.7772 182.843 92.4359 182.224C92.1052 181.605 91.9399 180.875 91.9399 180.032C91.9399 179.2 92.1052 178.475 92.4359 177.856C92.7665 177.227 93.2252 176.741 93.8119 176.4C94.4092 176.048 95.0972 175.872 95.8759 175.872C96.6439 175.872 97.3052 176.048 97.8599 176.4C98.4252 176.741 98.8572 177.195 99.1559 177.76C99.4545 178.325 99.6039 178.933 99.6039 179.584C99.6039 179.701 99.5985 179.819 99.5879 179.936C99.5879 180.053 99.5879 180.187 99.5879 180.336H93.2679C93.2999 180.944 93.4385 181.451 93.6839 181.856C93.9399 182.251 94.2545 182.549 94.6279 182.752C95.0119 182.955 95.4172 183.056 95.8439 183.056C96.3985 183.056 96.8625 182.928 97.2359 182.672C97.6092 182.416 97.8812 182.069 98.0519 181.632H99.3799C99.1665 182.368 98.7559 182.981 98.1479 183.472C97.5505 183.952 96.7825 184.192 95.8439 184.192ZM95.8439 177.008C95.2039 177.008 94.6332 177.205 94.1319 177.6C93.6412 177.984 93.3585 178.549 93.2839 179.296H98.2759C98.2439 178.581 97.9985 178.021 97.5399 177.616C97.0812 177.211 96.5159 177.008 95.8439 177.008Z" fill="black"/>
<circle cx="304" cy="180" r="7.5" stroke="#828BA0"/>
<circle cx="304" cy="180" r="7.5" stroke="#828BA0"/>
<circle cx="304" cy="180" r="5" fill="#FAC847"/>
<g filter="url(#filter1_dd)">
<rect x="24" y="216" width="312" height="56" rx="16" fill="white"/>
</g>
<path d="M48.48 248L52.608 236.8H54.032L58.144 248H56.72L55.696 245.12H50.928L49.888 248H48.48ZM51.328 244.032H55.296L53.312 238.496L51.328 244.032ZM60.609 238.304C60.353 238.304 60.1343 238.219 59.953 238.048C59.7717 237.867 59.681 237.643 59.681 237.376C59.681 237.12 59.7717 236.907 59.953 236.736C60.1343 236.565 60.353 236.48 60.609 236.48C60.865 236.48 61.0783 236.565 61.249 236.736C61.4303 236.907 61.521 237.12 61.521 237.376C61.521 237.643 61.4303 237.867 61.249 238.048C61.0783 238.219 60.865 238.304 60.609 238.304ZM58.177 251.52V250.368H58.801C59.1957 250.368 59.4783 250.283 59.649 250.112C59.8303 249.952 59.921 249.675 59.921 249.28V240.064H61.265V249.312C61.265 250.08 61.073 250.64 60.689 250.992C60.305 251.344 59.745 251.52 59.009 251.52H58.177ZM64.42 238.304C64.1533 238.304 63.9293 238.219 63.748 238.048C63.5773 237.867 63.492 237.643 63.492 237.376C63.492 237.12 63.5773 236.907 63.748 236.736C63.9293 236.565 64.1533 236.48 64.42 236.48C64.676 236.48 64.8947 236.565 65.076 236.736C65.2573 236.907 65.348 237.12 65.348 237.376C65.348 237.643 65.2573 237.867 65.076 238.048C64.8947 238.219 64.676 238.304 64.42 238.304ZM63.748 248V240.064H65.092V248H63.748ZM70.5681 248C69.8428 248 69.2721 247.824 68.8561 247.472C68.4401 247.12 68.2321 246.485 68.2321 245.568V241.2H66.8561V240.064H68.2321L68.4081 238.16H69.5761V240.064H71.9121V241.2H69.5761V245.568C69.5761 246.069 69.6775 246.411 69.8801 246.592C70.0828 246.763 70.4401 246.848 70.9521 246.848H71.7841V248H70.5681ZM77.934 248V236.8H81.374C83.3473 236.8 84.798 237.301 85.726 238.304C86.6647 239.307 87.134 240.683 87.134 242.432C87.134 244.149 86.6647 245.509 85.726 246.512C84.798 247.504 83.3473 248 81.374 248H77.934ZM79.278 246.88H81.342C82.43 246.88 83.294 246.704 83.934 246.352C84.5847 245.989 85.0487 245.477 85.326 244.816C85.6033 244.144 85.742 243.349 85.742 242.432C85.742 241.493 85.6033 240.688 85.326 240.016C85.0487 239.344 84.5847 238.827 83.934 238.464C83.294 238.101 82.43 237.92 81.342 237.92H79.278V246.88ZM89.8106 238.304C89.544 238.304 89.32 238.219 89.1386 238.048C88.968 237.867 88.8826 237.643 88.8826 237.376C88.8826 237.12 88.968 236.907 89.1386 236.736C89.32 236.565 89.544 236.48 89.8106 236.48C90.0666 236.48 90.2853 236.565 90.4666 236.736C90.648 236.907 90.7386 237.12 90.7386 237.376C90.7386 237.643 90.648 237.867 90.4666 238.048C90.2853 238.219 90.0666 238.304 89.8106 238.304ZM89.1386 248V240.064H90.4826V248H89.1386ZM92.8228 251.52V240.064H94.0388L94.1668 241.376C94.4228 240.992 94.7854 240.645 95.2548 240.336C95.7348 240.027 96.3428 239.872 97.0788 239.872C97.8681 239.872 98.5561 240.053 99.1428 240.416C99.7294 240.779 100.183 241.275 100.503 241.904C100.833 242.533 100.999 243.248 100.999 244.048C100.999 244.848 100.833 245.563 100.503 246.192C100.183 246.811 99.7241 247.301 99.1268 247.664C98.5401 248.016 97.8521 248.192 97.0628 248.192C96.4121 248.192 95.8308 248.059 95.3188 247.792C94.8174 247.525 94.4334 247.152 94.1668 246.672V251.52H92.8228ZM96.9188 247.024C97.4521 247.024 97.9214 246.901 98.3268 246.656C98.7321 246.4 99.0521 246.048 99.2868 245.6C99.5214 245.152 99.6388 244.629 99.6388 244.032C99.6388 243.435 99.5214 242.912 99.2868 242.464C99.0521 242.016 98.7321 241.669 98.3268 241.424C97.9214 241.168 97.4521 241.04 96.9188 241.04C96.3854 241.04 95.9161 241.168 95.5108 241.424C95.1054 241.669 94.7854 242.016 94.5508 242.464C94.3161 242.912 94.1988 243.435 94.1988 244.032C94.1988 244.629 94.3161 245.152 94.5508 245.6C94.7854 246.048 95.1054 246.4 95.5108 246.656C95.9161 246.901 96.3854 247.024 96.9188 247.024ZM105.51 248.192C104.848 248.192 104.299 248.08 103.862 247.856C103.424 247.632 103.099 247.333 102.886 246.96C102.672 246.587 102.566 246.181 102.566 245.744C102.566 244.933 102.875 244.309 103.494 243.872C104.112 243.435 104.955 243.216 106.022 243.216H108.166V243.12C108.166 242.427 107.984 241.904 107.622 241.552C107.259 241.189 106.774 241.008 106.166 241.008C105.643 241.008 105.19 241.141 104.806 241.408C104.432 241.664 104.198 242.043 104.102 242.544H102.726C102.779 241.968 102.971 241.483 103.302 241.088C103.643 240.693 104.064 240.395 104.566 240.192C105.067 239.979 105.6 239.872 106.166 239.872C107.275 239.872 108.107 240.171 108.662 240.768C109.227 241.355 109.51 242.139 109.51 243.12V248H108.31L108.23 246.576C108.006 247.024 107.675 247.408 107.238 247.728C106.811 248.037 106.235 248.192 105.51 248.192ZM105.718 247.056C106.23 247.056 106.667 246.923 107.03 246.656C107.403 246.389 107.686 246.043 107.878 245.616C108.07 245.189 108.166 244.741 108.166 244.272V244.256H106.134C105.344 244.256 104.784 244.395 104.454 244.672C104.134 244.939 103.974 245.275 103.974 245.68C103.974 246.096 104.123 246.432 104.422 246.688C104.731 246.933 105.163 247.056 105.718 247.056ZM111.526 248V236.48H112.87V243.408L116.118 240.064H117.766L114.246 243.648L118.214 248H116.502L112.87 243.888V248H111.526Z" fill="black"/>
<circle cx="304" cy="244" r="7.5" stroke="#828BA0"/>
<circle cx="304" cy="244" r="7.5" stroke="#828BA0"/>
<circle cx="304" cy="244" r="5" fill="#FAC847"/>
<g filter="url(#filter2_dd)">
<rect x="24" y="88" width="312" height="56" rx="16" fill="white"/>
</g>
<path d="M52.752 120.192C51.9307 120.192 51.216 120.043 50.608 119.744C50 119.445 49.5307 119.029 49.2 118.496C48.8693 117.963 48.704 117.344 48.704 116.64H50.112C50.112 117.077 50.2133 117.483 50.416 117.856C50.6187 118.219 50.912 118.512 51.296 118.736C51.6907 118.949 52.176 119.056 52.752 119.056C53.5093 119.056 54.096 118.875 54.512 118.512C54.928 118.149 55.136 117.696 55.136 117.152C55.136 116.704 55.04 116.347 54.848 116.08C54.656 115.803 54.3947 115.579 54.064 115.408C53.744 115.237 53.3707 115.088 52.944 114.96C52.528 114.832 52.0907 114.688 51.632 114.528C50.768 114.229 50.128 113.861 49.712 113.424C49.296 112.976 49.088 112.395 49.088 111.68C49.0773 111.083 49.216 110.555 49.504 110.096C49.792 109.627 50.1973 109.264 50.72 109.008C51.2533 108.741 51.8827 108.608 52.608 108.608C53.3227 108.608 53.9413 108.741 54.464 109.008C54.9973 109.275 55.408 109.643 55.696 110.112C55.9947 110.581 56.1493 111.115 56.16 111.712H54.752C54.752 111.403 54.672 111.099 54.512 110.8C54.352 110.491 54.1067 110.24 53.776 110.048C53.456 109.856 53.0507 109.76 52.56 109.76C51.952 109.749 51.4507 109.904 51.056 110.224C50.672 110.544 50.48 110.987 50.48 111.552C50.48 112.032 50.6133 112.4 50.88 112.656C51.1573 112.912 51.5413 113.125 52.032 113.296C52.5227 113.456 53.088 113.643 53.728 113.856C54.2613 114.048 54.7413 114.272 55.168 114.528C55.5947 114.784 55.9253 115.115 56.16 115.52C56.4053 115.925 56.528 116.443 56.528 117.072C56.528 117.605 56.3893 118.112 56.112 118.592C55.8347 119.061 55.4133 119.445 54.848 119.744C54.2933 120.043 53.5947 120.192 52.752 120.192ZM60.994 120.192C60.3327 120.192 59.7833 120.08 59.346 119.856C58.9087 119.632 58.5833 119.333 58.37 118.96C58.1567 118.587 58.05 118.181 58.05 117.744C58.05 116.933 58.3593 116.309 58.978 115.872C59.5967 115.435 60.4393 115.216 61.506 115.216H63.65V115.12C63.65 114.427 63.4687 113.904 63.106 113.552C62.7433 113.189 62.258 113.008 61.65 113.008C61.1273 113.008 60.674 113.141 60.29 113.408C59.9167 113.664 59.682 114.043 59.586 114.544H58.21C58.2633 113.968 58.4553 113.483 58.786 113.088C59.1273 112.693 59.5487 112.395 60.05 112.192C60.5513 111.979 61.0847 111.872 61.65 111.872C62.7593 111.872 63.5913 112.171 64.146 112.768C64.7113 113.355 64.994 114.139 64.994 115.12V120H63.794L63.714 118.576C63.49 119.024 63.1593 119.408 62.722 119.728C62.2953 120.037 61.7193 120.192 60.994 120.192ZM61.202 119.056C61.714 119.056 62.1513 118.923 62.514 118.656C62.8873 118.389 63.17 118.043 63.362 117.616C63.554 117.189 63.65 116.741 63.65 116.272V116.256H61.618C60.8287 116.256 60.2687 116.395 59.938 116.672C59.618 116.939 59.458 117.275 59.458 117.68C59.458 118.096 59.6073 118.432 59.906 118.688C60.2153 118.933 60.6473 119.056 61.202 119.056ZM67.0103 120V112.064H68.2263L68.3223 113.216C68.5783 112.789 68.9196 112.459 69.3463 112.224C69.7729 111.989 70.2529 111.872 70.7863 111.872C71.4156 111.872 71.9543 112 72.4023 112.256C72.8609 112.512 73.2129 112.901 73.4583 113.424C73.7356 112.944 74.1143 112.565 74.5943 112.288C75.0849 112.011 75.6129 111.872 76.1783 111.872C77.1276 111.872 77.8849 112.16 78.4503 112.736C79.0156 113.301 79.2983 114.176 79.2983 115.36V120H77.9703V115.504C77.9703 114.683 77.8049 114.064 77.4743 113.648C77.1436 113.232 76.6689 113.024 76.0503 113.024C75.4103 113.024 74.8769 113.275 74.4503 113.776C74.0343 114.267 73.8263 114.971 73.8263 115.888V120H72.4823V115.504C72.4823 114.683 72.3169 114.064 71.9863 113.648C71.6556 113.232 71.1809 113.024 70.5623 113.024C69.9329 113.024 69.4049 113.275 68.9783 113.776C68.5623 114.267 68.3543 114.971 68.3543 115.888V120H67.0103ZM89.6851 120.192C88.9171 120.192 88.2185 120.043 87.5891 119.744C86.9705 119.435 86.4745 118.96 86.1011 118.32C85.7278 117.68 85.5411 116.864 85.5411 115.872V108.8H86.8851V115.888C86.8851 116.976 87.1465 117.765 87.6691 118.256C88.1918 118.747 88.8745 118.992 89.7171 118.992C90.5598 118.992 91.2371 118.747 91.7491 118.256C92.2611 117.765 92.5171 116.976 92.5171 115.888V108.8H93.8611V115.872C93.8611 116.864 93.6745 117.68 93.3011 118.32C92.9278 118.96 92.4265 119.435 91.7971 119.744C91.1678 120.043 90.4638 120.192 89.6851 120.192ZM96.0571 120V112.064H97.2731L97.3691 113.216C97.6251 112.789 97.9665 112.459 98.3931 112.224C98.8198 111.989 99.2998 111.872 99.8331 111.872C100.462 111.872 101.001 112 101.449 112.256C101.908 112.512 102.26 112.901 102.505 113.424C102.782 112.944 103.161 112.565 103.641 112.288C104.132 112.011 104.66 111.872 105.225 111.872C106.174 111.872 106.932 112.16 107.497 112.736C108.062 113.301 108.345 114.176 108.345 115.36V120H107.017V115.504C107.017 114.683 106.852 114.064 106.521 113.648C106.19 113.232 105.716 113.024 105.097 113.024C104.457 113.024 103.924 113.275 103.497 113.776C103.081 114.267 102.873 114.971 102.873 115.888V120H101.529V115.504C101.529 114.683 101.364 114.064 101.033 113.648C100.702 113.232 100.228 113.024 99.6091 113.024C98.9798 113.024 98.4518 113.275 98.0251 113.776C97.6091 114.267 97.4011 114.971 97.4011 115.888V120H96.0571ZM111.186 110.304C110.919 110.304 110.695 110.219 110.514 110.048C110.343 109.867 110.258 109.643 110.258 109.376C110.258 109.12 110.343 108.907 110.514 108.736C110.695 108.565 110.919 108.48 111.186 108.48C111.442 108.48 111.66 108.565 111.842 108.736C112.023 108.907 112.114 109.12 112.114 109.376C112.114 109.643 112.023 109.867 111.842 110.048C111.66 110.219 111.442 110.304 111.186 110.304ZM110.514 120V112.064H111.858V120H110.514ZM114.198 120V112.064H115.414L115.526 113.584C115.771 113.061 116.144 112.645 116.646 112.336C117.147 112.027 117.766 111.872 118.502 111.872V113.28H118.134C117.664 113.28 117.232 113.365 116.838 113.536C116.443 113.696 116.128 113.973 115.894 114.368C115.659 114.763 115.542 115.307 115.542 116V120H114.198ZM123.313 120.192C122.524 120.192 121.831 120.011 121.233 119.648C120.647 119.285 120.188 118.789 119.857 118.16C119.537 117.531 119.377 116.816 119.377 116.016C119.377 115.216 119.543 114.507 119.873 113.888C120.204 113.259 120.663 112.768 121.249 112.416C121.836 112.053 122.529 111.872 123.329 111.872C123.98 111.872 124.556 112.005 125.057 112.272C125.559 112.539 125.948 112.912 126.225 113.392V108.48H127.569V120H126.353L126.225 118.688C125.969 119.072 125.601 119.419 125.121 119.728C124.641 120.037 124.039 120.192 123.313 120.192ZM123.457 119.024C123.991 119.024 124.46 118.901 124.865 118.656C125.281 118.4 125.601 118.048 125.825 117.6C126.06 117.152 126.177 116.629 126.177 116.032C126.177 115.435 126.06 114.912 125.825 114.464C125.601 114.016 125.281 113.669 124.865 113.424C124.46 113.168 123.991 113.04 123.457 113.04C122.935 113.04 122.465 113.168 122.049 113.424C121.644 113.669 121.324 114.016 121.089 114.464C120.865 114.912 120.753 115.435 120.753 116.032C120.753 116.629 120.865 117.152 121.089 117.6C121.324 118.048 121.644 118.4 122.049 118.656C122.465 118.901 122.935 119.024 123.457 119.024ZM130.576 110.304C130.31 110.304 130.086 110.219 129.904 110.048C129.734 109.867 129.648 109.643 129.648 109.376C129.648 109.12 129.734 108.907 129.904 108.736C130.086 108.565 130.31 108.48 130.576 108.48C130.832 108.48 131.051 108.565 131.232 108.736C131.414 108.907 131.504 109.12 131.504 109.376C131.504 109.643 131.414 109.867 131.232 110.048C131.051 110.219 130.832 110.304 130.576 110.304ZM129.904 120V112.064H131.248V120H129.904ZM133.588 120V112.064H134.804L134.884 113.488C135.14 112.987 135.508 112.592 135.988 112.304C136.468 112.016 137.012 111.872 137.62 111.872C138.559 111.872 139.306 112.16 139.86 112.736C140.426 113.301 140.708 114.176 140.708 115.36V120H139.364V115.504C139.364 113.851 138.682 113.024 137.316 113.024C136.634 113.024 136.063 113.275 135.604 113.776C135.156 114.267 134.932 114.971 134.932 115.888V120H133.588ZM146.361 120.192C145.614 120.192 144.942 120.021 144.345 119.68C143.747 119.339 143.273 118.859 142.921 118.24C142.579 117.611 142.409 116.875 142.409 116.032C142.409 115.189 142.585 114.459 142.937 113.84C143.289 113.211 143.763 112.725 144.361 112.384C144.969 112.043 145.646 111.872 146.393 111.872C147.139 111.872 147.811 112.043 148.409 112.384C149.006 112.725 149.475 113.211 149.817 113.84C150.169 114.459 150.345 115.189 150.345 116.032C150.345 116.875 150.169 117.611 149.817 118.24C149.465 118.859 148.985 119.339 148.377 119.68C147.779 120.021 147.107 120.192 146.361 120.192ZM146.361 119.04C146.819 119.04 147.246 118.928 147.641 118.704C148.035 118.48 148.355 118.144 148.601 117.696C148.846 117.248 148.969 116.693 148.969 116.032C148.969 115.371 148.846 114.816 148.601 114.368C148.366 113.92 148.051 113.584 147.657 113.36C147.262 113.136 146.841 113.024 146.393 113.024C145.934 113.024 145.507 113.136 145.113 113.36C144.718 113.584 144.398 113.92 144.153 114.368C143.907 114.816 143.785 115.371 143.785 116.032C143.785 116.693 143.907 117.248 144.153 117.696C144.398 118.144 144.713 118.48 145.097 118.704C145.491 118.928 145.913 119.04 146.361 119.04ZM154.095 120L151.087 112.064H152.495L154.879 118.704L157.279 112.064H158.655L155.647 120H154.095Z" fill="black"/>
<circle cx="304" cy="116" r="7.5" stroke="#828BA0"/>
<circle cx="304" cy="116" r="7.5" stroke="#828BA0"/>
<circle cx="304" cy="116" r="5" fill="#FAC847"/>
<g filter="url(#filter3_dd)">
<rect x="24" y="24" width="312" height="56" rx="16" fill="white"/>
</g>
<path d="M49.184 56V44.8H50.528V49.744H56.336V44.8H57.68V56H56.336V50.848H50.528V56H49.184ZM62.6034 56.192C61.942 56.192 61.3927 56.08 60.9554 55.856C60.518 55.632 60.1927 55.3333 59.9794 54.96C59.766 54.5867 59.6594 54.1813 59.6594 53.744C59.6594 52.9333 59.9687 52.3093 60.5874 51.872C61.206 51.4347 62.0487 51.216 63.1154 51.216H65.2594V51.12C65.2594 50.4267 65.078 49.904 64.7154 49.552C64.3527 49.1893 63.8674 49.008 63.2594 49.008C62.7367 49.008 62.2834 49.1413 61.8994 49.408C61.526 49.664 61.2914 50.0427 61.1954 50.544H59.8194C59.8727 49.968 60.0647 49.4827 60.3954 49.088C60.7367 48.6933 61.158 48.3947 61.6594 48.192C62.1607 47.9787 62.694 47.872 63.2594 47.872C64.3687 47.872 65.2007 48.1707 65.7554 48.768C66.3207 49.3547 66.6034 50.1387 66.6034 51.12V56H65.4034L65.3234 54.576C65.0994 55.024 64.7687 55.408 64.3314 55.728C63.9047 56.0373 63.3287 56.192 62.6034 56.192ZM62.8114 55.056C63.3234 55.056 63.7607 54.9227 64.1234 54.656C64.4967 54.3893 64.7794 54.0427 64.9714 53.616C65.1634 53.1893 65.2594 52.7413 65.2594 52.272V52.256H63.2274C62.438 52.256 61.878 52.3947 61.5474 52.672C61.2274 52.9387 61.0674 53.2747 61.0674 53.68C61.0674 54.096 61.2167 54.432 61.5154 54.688C61.8247 54.9333 62.2567 55.056 62.8114 55.056ZM68.6196 56V48.064H69.8356L69.9156 49.488C70.1716 48.9867 70.5396 48.592 71.0196 48.304C71.4996 48.016 72.0436 47.872 72.6516 47.872C73.5903 47.872 74.337 48.16 74.8916 48.736C75.457 49.3013 75.7396 50.176 75.7396 51.36V56H74.3956V51.504C74.3956 49.8507 73.713 49.024 72.3476 49.024C71.665 49.024 71.0943 49.2747 70.6356 49.776C70.1876 50.2667 69.9636 50.9707 69.9636 51.888V56H68.6196ZM77.7759 56V48.064H78.9919L79.0719 49.488C79.3279 48.9867 79.6959 48.592 80.1759 48.304C80.6559 48.016 81.1999 47.872 81.8079 47.872C82.7465 47.872 83.4932 48.16 84.0479 48.736C84.6132 49.3013 84.8959 50.176 84.8959 51.36V56H83.5519V51.504C83.5519 49.8507 82.8692 49.024 81.5039 49.024C80.8212 49.024 80.2505 49.2747 79.7919 49.776C79.3439 50.2667 79.1199 50.9707 79.1199 51.888V56H77.7759ZM89.5721 56.192C88.9108 56.192 88.3615 56.08 87.9241 55.856C87.4868 55.632 87.1615 55.3333 86.9481 54.96C86.7348 54.5867 86.6281 54.1813 86.6281 53.744C86.6281 52.9333 86.9375 52.3093 87.5561 51.872C88.1748 51.4347 89.0175 51.216 90.0841 51.216H92.2281V51.12C92.2281 50.4267 92.0468 49.904 91.6841 49.552C91.3215 49.1893 90.8361 49.008 90.2281 49.008C89.7055 49.008 89.2521 49.1413 88.8681 49.408C88.4948 49.664 88.2601 50.0427 88.1641 50.544H86.7881C86.8415 49.968 87.0335 49.4827 87.3641 49.088C87.7055 48.6933 88.1268 48.3947 88.6281 48.192C89.1295 47.9787 89.6628 47.872 90.2281 47.872C91.3375 47.872 92.1695 48.1707 92.7241 48.768C93.2895 49.3547 93.5721 50.1387 93.5721 51.12V56H92.3721L92.2921 54.576C92.0681 55.024 91.7375 55.408 91.3001 55.728C90.8735 56.0373 90.2975 56.192 89.5721 56.192ZM89.7801 55.056C90.2921 55.056 90.7295 54.9227 91.0921 54.656C91.4655 54.3893 91.7481 54.0427 91.9401 53.616C92.1321 53.1893 92.2281 52.7413 92.2281 52.272V52.256H90.1961C89.4068 52.256 88.8468 52.3947 88.5161 52.672C88.1961 52.9387 88.0361 53.2747 88.0361 53.68C88.0361 54.096 88.1855 54.432 88.4841 54.688C88.7935 54.9333 89.2255 55.056 89.7801 55.056ZM95.5884 56V44.48H96.9324V49.424C97.199 48.9333 97.5777 48.5547 98.0684 48.288C98.559 48.0107 99.0924 47.872 99.6684 47.872C100.586 47.872 101.322 48.16 101.876 48.736C102.431 49.3013 102.708 50.176 102.708 51.36V56H101.38V51.504C101.38 49.8507 100.714 49.024 99.3804 49.024C98.687 49.024 98.1057 49.2747 97.6364 49.776C97.167 50.2667 96.9324 50.9707 96.9324 51.888V56H95.5884ZM109.059 56V44.8H110.403V54.928H115.619V56H109.059ZM120.61 56.192C119.852 56.192 119.18 56.0213 118.594 55.68C118.007 55.328 117.543 54.8427 117.202 54.224C116.871 53.6053 116.706 52.8747 116.706 52.032C116.706 51.2 116.871 50.4747 117.202 49.856C117.532 49.2267 117.991 48.7413 118.578 48.4C119.175 48.048 119.863 47.872 120.641 47.872C121.41 47.872 122.071 48.048 122.626 48.4C123.191 48.7413 123.623 49.1947 123.922 49.76C124.22 50.3253 124.37 50.9333 124.37 51.584C124.37 51.7013 124.364 51.8187 124.354 51.936C124.354 52.0533 124.354 52.1867 124.354 52.336H118.034C118.066 52.944 118.204 53.4507 118.45 53.856C118.706 54.2507 119.02 54.5493 119.394 54.752C119.778 54.9547 120.183 55.056 120.61 55.056C121.164 55.056 121.628 54.928 122.002 54.672C122.375 54.416 122.647 54.0693 122.818 53.632H124.146C123.932 54.368 123.522 54.9813 122.914 55.472C122.316 55.952 121.548 56.192 120.61 56.192ZM120.61 49.008C119.97 49.008 119.399 49.2053 118.898 49.6C118.407 49.984 118.124 50.5493 118.049 51.296H123.042C123.01 50.5813 122.764 50.0213 122.306 49.616C121.847 49.2107 121.282 49.008 120.61 49.008ZM129.719 56.192C128.962 56.192 128.29 56.0213 127.703 55.68C127.116 55.328 126.652 54.8427 126.311 54.224C125.98 53.6053 125.815 52.8747 125.815 52.032C125.815 51.2 125.98 50.4747 126.311 49.856C126.642 49.2267 127.1 48.7413 127.687 48.4C128.284 48.048 128.972 47.872 129.751 47.872C130.519 47.872 131.18 48.048 131.735 48.4C132.3 48.7413 132.732 49.1947 133.031 49.76C133.33 50.3253 133.479 50.9333 133.479 51.584C133.479 51.7013 133.474 51.8187 133.463 51.936C133.463 52.0533 133.463 52.1867 133.463 52.336H127.143C127.175 52.944 127.314 53.4507 127.559 53.856C127.815 54.2507 128.13 54.5493 128.503 54.752C128.887 54.9547 129.292 55.056 129.719 55.056C130.274 55.056 130.738 54.928 131.111 54.672C131.484 54.416 131.756 54.0693 131.927 53.632H133.255C133.042 54.368 132.631 54.9813 132.023 55.472C131.426 55.952 130.658 56.192 129.719 56.192ZM129.719 49.008C129.079 49.008 128.508 49.2053 128.007 49.6C127.516 49.984 127.234 50.5493 127.159 51.296H132.151C132.119 50.5813 131.874 50.0213 131.415 49.616C130.956 49.2107 130.391 49.008 129.719 49.008Z" fill="black"/>
<circle cx="304" cy="52" r="7.5" stroke="#828BA0"/>
<circle cx="304" cy="52" r="7.5" stroke="#828BA0"/>
<circle cx="304" cy="52" r="5" fill="#FAC847"/>
<g filter="url(#filter4_dd)">
<rect x="24" y="280" width="312" height="56" rx="16" fill="white"/>
</g>
<path d="M52.752 312.192C51.9307 312.192 51.216 312.043 50.608 311.744C50 311.445 49.5307 311.029 49.2 310.496C48.8693 309.963 48.704 309.344 48.704 308.64H50.112C50.112 309.077 50.2133 309.483 50.416 309.856C50.6187 310.219 50.912 310.512 51.296 310.736C51.6907 310.949 52.176 311.056 52.752 311.056C53.5093 311.056 54.096 310.875 54.512 310.512C54.928 310.149 55.136 309.696 55.136 309.152C55.136 308.704 55.04 308.347 54.848 308.08C54.656 307.803 54.3947 307.579 54.064 307.408C53.744 307.237 53.3707 307.088 52.944 306.96C52.528 306.832 52.0907 306.688 51.632 306.528C50.768 306.229 50.128 305.861 49.712 305.424C49.296 304.976 49.088 304.395 49.088 303.68C49.0773 303.083 49.216 302.555 49.504 302.096C49.792 301.627 50.1973 301.264 50.72 301.008C51.2533 300.741 51.8827 300.608 52.608 300.608C53.3227 300.608 53.9413 300.741 54.464 301.008C54.9973 301.275 55.408 301.643 55.696 302.112C55.9947 302.581 56.1493 303.115 56.16 303.712H54.752C54.752 303.403 54.672 303.099 54.512 302.8C54.352 302.491 54.1067 302.24 53.776 302.048C53.456 301.856 53.0507 301.76 52.56 301.76C51.952 301.749 51.4507 301.904 51.056 302.224C50.672 302.544 50.48 302.987 50.48 303.552C50.48 304.032 50.6133 304.4 50.88 304.656C51.1573 304.912 51.5413 305.125 52.032 305.296C52.5227 305.456 53.088 305.643 53.728 305.856C54.2613 306.048 54.7413 306.272 55.168 306.528C55.5947 306.784 55.9253 307.115 56.16 307.52C56.4053 307.925 56.528 308.443 56.528 309.072C56.528 309.605 56.3893 310.112 56.112 310.592C55.8347 311.061 55.4133 311.445 54.848 311.744C54.2933 312.043 53.5947 312.192 52.752 312.192ZM61.922 312.192C61.1647 312.192 60.4927 312.021 59.906 311.68C59.3193 311.328 58.8553 310.843 58.514 310.224C58.1833 309.605 58.018 308.875 58.018 308.032C58.018 307.2 58.1833 306.475 58.514 305.856C58.8447 305.227 59.3033 304.741 59.89 304.4C60.4873 304.048 61.1753 303.872 61.954 303.872C62.722 303.872 63.3833 304.048 63.938 304.4C64.5033 304.741 64.9353 305.195 65.234 305.76C65.5327 306.325 65.682 306.933 65.682 307.584C65.682 307.701 65.6767 307.819 65.666 307.936C65.666 308.053 65.666 308.187 65.666 308.336H59.346C59.378 308.944 59.5167 309.451 59.762 309.856C60.018 310.251 60.3327 310.549 60.706 310.752C61.09 310.955 61.4953 311.056 61.922 311.056C62.4767 311.056 62.9407 310.928 63.314 310.672C63.6873 310.416 63.9593 310.069 64.13 309.632H65.458C65.2447 310.368 64.834 310.981 64.226 311.472C63.6287 311.952 62.8607 312.192 61.922 312.192ZM61.922 305.008C61.282 305.008 60.7113 305.205 60.21 305.6C59.7193 305.984 59.4367 306.549 59.362 307.296H64.354C64.322 306.581 64.0767 306.021 63.618 305.616C63.1593 305.211 62.594 305.008 61.922 305.008ZM67.8954 312V305.2H66.6954V304.064H67.8954V302.688C67.8954 301.92 68.0874 301.36 68.4714 301.008C68.8554 300.656 69.4154 300.48 70.1514 300.48H70.9514V301.632H70.3594C69.954 301.632 69.666 301.717 69.4954 301.888C69.3247 302.048 69.2394 302.325 69.2394 302.72V304.064H71.1914V305.2H69.2394V312H67.8954ZM75.6875 312.192C74.7488 312.192 74.0022 311.909 73.4475 311.344C72.8928 310.768 72.6155 309.888 72.6155 308.704V304.064H73.9595V308.56C73.9595 310.213 74.6368 311.04 75.9915 311.04C76.6848 311.04 77.2555 310.795 77.7035 310.304C78.1622 309.803 78.3915 309.093 78.3915 308.176V304.064H79.7355V312H78.5195L78.4235 310.576C78.1782 311.077 77.8102 311.472 77.3195 311.76C76.8395 312.048 76.2955 312.192 75.6875 312.192ZM81.9478 312V304.064H83.1638L83.2438 305.488C83.4998 304.987 83.8678 304.592 84.3478 304.304C84.8278 304.016 85.3718 303.872 85.9798 303.872C86.9184 303.872 87.6651 304.16 88.2198 304.736C88.7851 305.301 89.0677 306.176 89.0677 307.36V312H87.7238V307.504C87.7238 305.851 87.0411 305.024 85.6758 305.024C84.9931 305.024 84.4224 305.275 83.9638 305.776C83.5158 306.267 83.2918 306.971 83.2918 307.888V312H81.9478ZM91.104 312V304.064H92.32L92.416 305.216C92.672 304.789 93.0133 304.459 93.44 304.224C93.8667 303.989 94.3467 303.872 94.88 303.872C95.5093 303.872 96.048 304 96.496 304.256C96.9547 304.512 97.3067 304.901 97.552 305.424C97.8293 304.944 98.208 304.565 98.688 304.288C99.1787 304.011 99.7067 303.872 100.272 303.872C101.221 303.872 101.979 304.16 102.544 304.736C103.109 305.301 103.392 306.176 103.392 307.36V312H102.064V307.504C102.064 306.683 101.899 306.064 101.568 305.648C101.237 305.232 100.763 305.024 100.144 305.024C99.504 305.024 98.9707 305.275 98.544 305.776C98.128 306.267 97.92 306.971 97.92 307.888V312H96.576V307.504C96.576 306.683 96.4107 306.064 96.08 305.648C95.7493 305.232 95.2747 305.024 94.656 305.024C94.0267 305.024 93.4987 305.275 93.072 305.776C92.656 306.267 92.448 306.971 92.448 307.888V312H91.104ZM106.233 302.304C105.966 302.304 105.742 302.219 105.561 302.048C105.39 301.867 105.305 301.643 105.305 301.376C105.305 301.12 105.39 300.907 105.561 300.736C105.742 300.565 105.966 300.48 106.233 300.48C106.489 300.48 106.707 300.565 106.889 300.736C107.07 300.907 107.161 301.12 107.161 301.376C107.161 301.643 107.07 301.867 106.889 302.048C106.707 302.219 106.489 302.304 106.233 302.304ZM105.561 312V304.064H106.905V312H105.561ZM118.647 312.192C117.548 312.192 116.583 311.952 115.751 311.472C114.93 310.981 114.284 310.299 113.815 309.424C113.356 308.549 113.127 307.541 113.127 306.4C113.127 305.259 113.356 304.256 113.815 303.392C114.284 302.517 114.93 301.835 115.751 301.344C116.583 300.853 117.548 300.608 118.647 300.608C119.756 300.608 120.722 300.853 121.543 301.344C122.375 301.835 123.02 302.517 123.479 303.392C123.938 304.256 124.167 305.259 124.167 306.4C124.167 307.541 123.938 308.549 123.479 309.424C123.02 310.299 122.375 310.981 121.543 311.472C120.722 311.952 119.756 312.192 118.647 312.192ZM118.647 311.008C119.468 311.008 120.188 310.827 120.807 310.464C121.436 310.091 121.922 309.563 122.263 308.88C122.615 308.187 122.791 307.36 122.791 306.4C122.791 305.44 122.615 304.619 122.263 303.936C121.922 303.253 121.436 302.731 120.807 302.368C120.188 301.995 119.468 301.808 118.647 301.808C117.826 301.808 117.1 301.995 116.471 302.368C115.852 302.731 115.367 303.253 115.015 303.936C114.674 304.619 114.503 305.44 114.503 306.4C114.503 307.36 114.674 308.187 115.015 308.88C115.367 309.563 115.852 310.091 116.471 310.464C117.1 310.827 117.826 311.008 118.647 311.008ZM129.066 312.192C128.117 312.192 127.327 311.952 126.698 311.472C126.069 310.992 125.701 310.341 125.594 309.52H126.97C127.055 309.936 127.274 310.299 127.626 310.608C127.989 310.907 128.474 311.056 129.082 311.056C129.647 311.056 130.063 310.939 130.33 310.704C130.597 310.459 130.73 310.171 130.73 309.84C130.73 309.36 130.554 309.04 130.202 308.88C129.861 308.72 129.375 308.576 128.746 308.448C128.319 308.363 127.893 308.24 127.466 308.08C127.039 307.92 126.682 307.696 126.394 307.408C126.106 307.109 125.962 306.72 125.962 306.24C125.962 305.547 126.218 304.981 126.73 304.544C127.253 304.096 127.957 303.872 128.842 303.872C129.685 303.872 130.373 304.085 130.906 304.512C131.45 304.928 131.765 305.525 131.85 306.304H130.522C130.469 305.899 130.293 305.584 129.994 305.36C129.706 305.125 129.317 305.008 128.826 305.008C128.346 305.008 127.973 305.109 127.706 305.312C127.45 305.515 127.322 305.781 127.322 306.112C127.322 306.432 127.487 306.683 127.818 306.864C128.159 307.045 128.618 307.2 129.194 307.328C129.685 307.435 130.149 307.568 130.586 307.728C131.034 307.877 131.397 308.107 131.674 308.416C131.962 308.715 132.106 309.152 132.106 309.728C132.117 310.443 131.845 311.035 131.29 311.504C130.746 311.963 130.005 312.192 129.066 312.192ZM134.842 302.304C134.575 302.304 134.351 302.219 134.17 302.048C133.999 301.867 133.914 301.643 133.914 301.376C133.914 301.12 133.999 300.907 134.17 300.736C134.351 300.565 134.575 300.48 134.842 300.48C135.098 300.48 135.317 300.565 135.498 300.736C135.679 300.907 135.77 301.12 135.77 301.376C135.77 301.643 135.679 301.867 135.498 302.048C135.317 302.219 135.098 302.304 134.842 302.304ZM134.17 312V304.064H135.514V312H134.17ZM137.854 312V304.064H139.07L139.15 305.488C139.406 304.987 139.774 304.592 140.254 304.304C140.734 304.016 141.278 303.872 141.886 303.872C142.825 303.872 143.571 304.16 144.126 304.736C144.691 305.301 144.974 306.176 144.974 307.36V312H143.63V307.504C143.63 305.851 142.947 305.024 141.582 305.024C140.899 305.024 140.329 305.275 139.87 305.776C139.422 306.267 139.198 306.971 139.198 307.888V312H137.854ZM149.65 312.192C148.989 312.192 148.44 312.08 148.002 311.856C147.565 311.632 147.24 311.333 147.026 310.96C146.813 310.587 146.706 310.181 146.706 309.744C146.706 308.933 147.016 308.309 147.634 307.872C148.253 307.435 149.096 307.216 150.162 307.216H152.306V307.12C152.306 306.427 152.125 305.904 151.762 305.552C151.4 305.189 150.914 305.008 150.306 305.008C149.784 305.008 149.33 305.141 148.946 305.408C148.573 305.664 148.338 306.043 148.242 306.544H146.866C146.92 305.968 147.112 305.483 147.442 305.088C147.784 304.693 148.205 304.395 148.706 304.192C149.208 303.979 149.741 303.872 150.306 303.872C151.416 303.872 152.248 304.171 152.802 304.768C153.368 305.355 153.65 306.139 153.65 307.12V312H152.45L152.37 310.576C152.146 311.024 151.816 311.408 151.378 311.728C150.952 312.037 150.376 312.192 149.65 312.192ZM149.858 311.056C150.37 311.056 150.808 310.923 151.17 310.656C151.544 310.389 151.826 310.043 152.018 309.616C152.21 309.189 152.306 308.741 152.306 308.272V308.256H150.274C149.485 308.256 148.925 308.395 148.594 308.672C148.274 308.939 148.114 309.275 148.114 309.68C148.114 310.096 148.264 310.432 148.562 310.688C148.872 310.933 149.304 311.056 149.858 311.056ZM156.483 302.304C156.216 302.304 155.992 302.219 155.811 302.048C155.64 301.867 155.555 301.643 155.555 301.376C155.555 301.12 155.64 300.907 155.811 300.736C155.992 300.565 156.216 300.48 156.483 300.48C156.739 300.48 156.957 300.565 157.139 300.736C157.32 300.907 157.411 301.12 157.411 301.376C157.411 301.643 157.32 301.867 157.139 302.048C156.957 302.219 156.739 302.304 156.483 302.304ZM155.811 312V304.064H157.155V312H155.811ZM159.495 312V300.48H160.839V307.408L164.087 304.064H165.735L162.215 307.648L166.183 312H164.471L160.839 307.888V312H159.495ZM170.547 312.192C169.79 312.192 169.118 312.021 168.531 311.68C167.944 311.328 167.48 310.843 167.139 310.224C166.808 309.605 166.643 308.875 166.643 308.032C166.643 307.2 166.808 306.475 167.139 305.856C167.47 305.227 167.928 304.741 168.515 304.4C169.112 304.048 169.8 303.872 170.579 303.872C171.347 303.872 172.008 304.048 172.563 304.4C173.128 304.741 173.56 305.195 173.859 305.76C174.158 306.325 174.307 306.933 174.307 307.584C174.307 307.701 174.302 307.819 174.291 307.936C174.291 308.053 174.291 308.187 174.291 308.336H167.971C168.003 308.944 168.142 309.451 168.387 309.856C168.643 310.251 168.958 310.549 169.331 310.752C169.715 310.955 170.12 311.056 170.547 311.056C171.102 311.056 171.566 310.928 171.939 310.672C172.312 310.416 172.584 310.069 172.755 309.632H174.083C173.87 310.368 173.459 310.981 172.851 311.472C172.254 311.952 171.486 312.192 170.547 312.192ZM170.547 305.008C169.907 305.008 169.336 305.205 168.835 305.6C168.344 305.984 168.062 306.549 167.987 307.296H172.979C172.947 306.581 172.702 306.021 172.243 305.616C171.784 305.211 171.219 305.008 170.547 305.008Z" fill="black"/>
<circle cx="304" cy="308" r="7.5" stroke="#828BA0"/>
<circle cx="304" cy="308" r="7.5" stroke="#828BA0"/>
<circle cx="304" cy="308" r="5" fill="#FAC847"/>
<g filter="url(#filter5_dd)">
<rect x="24" y="344" width="312" height="56" rx="16" fill="white"/>
</g>
<path d="M49.184 376V364.8H50.528V369.744H56.336V364.8H57.68V376H56.336V370.848H50.528V376H49.184ZM63.5314 376.192C62.774 376.192 62.102 376.021 61.5154 375.68C60.9287 375.328 60.4647 374.843 60.1234 374.224C59.7927 373.605 59.6274 372.875 59.6274 372.032C59.6274 371.2 59.7927 370.475 60.1234 369.856C60.454 369.227 60.9127 368.741 61.4994 368.4C62.0967 368.048 62.7847 367.872 63.5634 367.872C64.3314 367.872 64.9927 368.048 65.5474 368.4C66.1127 368.741 66.5447 369.195 66.8434 369.76C67.142 370.325 67.2914 370.933 67.2914 371.584C67.2914 371.701 67.286 371.819 67.2754 371.936C67.2754 372.053 67.2754 372.187 67.2754 372.336H60.9554C60.9874 372.944 61.126 373.451 61.3714 373.856C61.6274 374.251 61.942 374.549 62.3154 374.752C62.6994 374.955 63.1047 375.056 63.5314 375.056C64.086 375.056 64.55 374.928 64.9234 374.672C65.2967 374.416 65.5687 374.069 65.7394 373.632H67.0674C66.854 374.368 66.4434 374.981 65.8354 375.472C65.238 375.952 64.47 376.192 63.5314 376.192ZM63.5314 369.008C62.8914 369.008 62.3207 369.205 61.8194 369.6C61.3287 369.984 61.046 370.549 60.9714 371.296H65.9634C65.9314 370.581 65.686 370.021 65.2274 369.616C64.7687 369.211 64.2034 369.008 63.5314 369.008ZM69.0728 376V364.48H70.4168V376H69.0728ZM76.1876 376.192C75.4303 376.192 74.7583 376.021 74.1716 375.68C73.585 375.328 73.121 374.843 72.7796 374.224C72.449 373.605 72.2836 372.875 72.2836 372.032C72.2836 371.2 72.449 370.475 72.7796 369.856C73.1103 369.227 73.569 368.741 74.1556 368.4C74.753 368.048 75.441 367.872 76.2196 367.872C76.9876 367.872 77.649 368.048 78.2036 368.4C78.769 368.741 79.201 369.195 79.4996 369.76C79.7983 370.325 79.9476 370.933 79.9476 371.584C79.9476 371.701 79.9423 371.819 79.9316 371.936C79.9316 372.053 79.9316 372.187 79.9316 372.336H73.6116C73.6436 372.944 73.7823 373.451 74.0276 373.856C74.2836 374.251 74.5983 374.549 74.9716 374.752C75.3556 374.955 75.761 375.056 76.1876 375.056C76.7423 375.056 77.2063 374.928 77.5796 374.672C77.953 374.416 78.225 374.069 78.3956 373.632H79.7236C79.5103 374.368 79.0996 374.981 78.4916 375.472C77.8943 375.952 77.1263 376.192 76.1876 376.192ZM76.1876 369.008C75.5476 369.008 74.977 369.205 74.4756 369.6C73.985 369.984 73.7023 370.549 73.6276 371.296H78.6196C78.5876 370.581 78.3423 370.021 77.8836 369.616C77.425 369.211 76.8596 369.008 76.1876 369.008ZM81.729 376V368.064H82.945L83.025 369.488C83.281 368.987 83.649 368.592 84.129 368.304C84.609 368.016 85.153 367.872 85.761 367.872C86.6997 367.872 87.4463 368.16 88.001 368.736C88.5663 369.301 88.849 370.176 88.849 371.36V376H87.505V371.504C87.505 369.851 86.8223 369.024 85.457 369.024C84.7743 369.024 84.2037 369.275 83.745 369.776C83.297 370.267 83.073 370.971 83.073 371.888V376H81.729ZM95.1996 376V364.8H96.5436V369.744H102.352V364.8H103.696V376H102.352V370.848H96.5436V376H95.1996ZM108.875 376.192C107.936 376.192 107.19 375.909 106.635 375.344C106.08 374.768 105.803 373.888 105.803 372.704V368.064H107.147V372.56C107.147 374.213 107.824 375.04 109.179 375.04C109.872 375.04 110.443 374.795 110.891 374.304C111.35 373.803 111.579 373.093 111.579 372.176V368.064H112.923V376H111.707L111.611 374.576C111.366 375.077 110.998 375.472 110.507 375.76C110.027 376.048 109.483 376.192 108.875 376.192ZM117.775 376.192C117.114 376.192 116.565 376.08 116.127 375.856C115.69 375.632 115.365 375.333 115.151 374.96C114.938 374.587 114.831 374.181 114.831 373.744C114.831 372.933 115.141 372.309 115.759 371.872C116.378 371.435 117.221 371.216 118.287 371.216H120.431V371.12C120.431 370.427 120.25 369.904 119.887 369.552C119.525 369.189 119.039 369.008 118.431 369.008C117.909 369.008 117.455 369.141 117.071 369.408C116.698 369.664 116.463 370.043 116.367 370.544H114.991C115.045 369.968 115.237 369.483 115.567 369.088C115.909 368.693 116.33 368.395 116.831 368.192C117.333 367.979 117.866 367.872 118.431 367.872C119.541 367.872 120.373 368.171 120.927 368.768C121.493 369.355 121.775 370.139 121.775 371.12V376H120.575L120.495 374.576C120.271 375.024 119.941 375.408 119.503 375.728C119.077 376.037 118.501 376.192 117.775 376.192ZM117.983 375.056C118.495 375.056 118.933 374.923 119.295 374.656C119.669 374.389 119.951 374.043 120.143 373.616C120.335 373.189 120.431 372.741 120.431 372.272V372.256H118.399C117.61 372.256 117.05 372.395 116.719 372.672C116.399 372.939 116.239 373.275 116.239 373.68C116.239 374.096 116.389 374.432 116.687 374.688C116.997 374.933 117.429 375.056 117.983 375.056ZM123.792 376V368.064H125.008L125.088 369.488C125.344 368.987 125.712 368.592 126.192 368.304C126.672 368.016 127.216 367.872 127.824 367.872C128.762 367.872 129.509 368.16 130.064 368.736C130.629 369.301 130.911 370.176 130.911 371.36V376H129.568V371.504C129.568 369.851 128.885 369.024 127.52 369.024C126.837 369.024 126.266 369.275 125.808 369.776C125.36 370.267 125.136 370.971 125.136 371.888V376H123.792ZM136.084 373.504C135.636 373.504 135.225 373.445 134.852 373.328L134.052 374.08C134.169 374.165 134.313 374.24 134.484 374.304C134.665 374.357 134.921 374.411 135.252 374.464C135.582 374.507 136.046 374.555 136.644 374.608C137.71 374.683 138.473 374.928 138.932 375.344C139.39 375.76 139.62 376.304 139.62 376.976C139.62 377.435 139.492 377.872 139.236 378.288C138.99 378.704 138.606 379.045 138.084 379.312C137.572 379.579 136.91 379.712 136.1 379.712C135.385 379.712 134.75 379.616 134.196 379.424C133.641 379.243 133.209 378.96 132.9 378.576C132.59 378.203 132.436 377.728 132.436 377.152C132.436 376.853 132.516 376.528 132.676 376.176C132.836 375.835 133.134 375.509 133.572 375.2C133.337 375.104 133.134 375.003 132.964 374.896C132.804 374.779 132.654 374.651 132.516 374.512V374.144L133.876 372.8C133.246 372.267 132.932 371.563 132.932 370.688C132.932 370.165 133.054 369.691 133.3 369.264C133.545 368.837 133.902 368.501 134.372 368.256C134.841 368 135.412 367.872 136.084 367.872C136.542 367.872 136.958 367.936 137.332 368.064H140.26V369.072L138.772 369.136C139.081 369.584 139.236 370.101 139.236 370.688C139.236 371.211 139.108 371.685 138.852 372.112C138.606 372.539 138.249 372.88 137.78 373.136C137.321 373.381 136.756 373.504 136.084 373.504ZM136.084 372.4C136.649 372.4 137.097 372.256 137.428 371.968C137.769 371.669 137.94 371.243 137.94 370.688C137.94 370.144 137.769 369.728 137.428 369.44C137.097 369.141 136.649 368.992 136.084 368.992C135.508 368.992 135.049 369.141 134.708 369.44C134.377 369.728 134.212 370.144 134.212 370.688C134.212 371.243 134.377 371.669 134.708 371.968C135.049 372.256 135.508 372.4 136.084 372.4ZM133.748 377.024C133.748 377.557 133.972 377.952 134.42 378.208C134.868 378.475 135.428 378.608 136.1 378.608C136.761 378.608 137.289 378.464 137.684 378.176C138.089 377.888 138.292 377.504 138.292 377.024C138.292 376.683 138.153 376.384 137.876 376.128C137.598 375.883 137.086 375.739 136.34 375.696C135.753 375.653 135.246 375.6 134.82 375.536C134.382 375.771 134.094 376.021 133.956 376.288C133.817 376.565 133.748 376.811 133.748 377.024Z" fill="black"/>
<circle cx="304" cy="372" r="7.5" stroke="#828BA0"/>
<g filter="url(#filter6_dd)">
<rect x="24" y="408" width="312" height="56" rx="16" fill="white"/>
</g>
<path d="M51.68 440.192C50.6667 440.192 49.872 439.909 49.296 439.344C48.72 438.779 48.432 437.995 48.432 436.992H49.792C49.792 437.557 49.9307 438.032 50.208 438.416C50.4853 438.8 50.9707 438.992 51.664 438.992C52.336 438.992 52.8 438.805 53.056 438.432C53.3227 438.059 53.456 437.595 53.456 437.04V428.8H54.8V437.04C54.8 438.032 54.5227 438.805 53.968 439.36C53.424 439.915 52.6613 440.192 51.68 440.192ZM60.7044 440.192C59.9577 440.192 59.2857 440.021 58.6884 439.68C58.091 439.339 57.6164 438.859 57.2644 438.24C56.923 437.611 56.7524 436.875 56.7524 436.032C56.7524 435.189 56.9284 434.459 57.2804 433.84C57.6324 433.211 58.107 432.725 58.7044 432.384C59.3124 432.043 59.9897 431.872 60.7364 431.872C61.483 431.872 62.155 432.043 62.7524 432.384C63.3497 432.725 63.819 433.211 64.1604 433.84C64.5124 434.459 64.6884 435.189 64.6884 436.032C64.6884 436.875 64.5124 437.611 64.1604 438.24C63.8084 438.859 63.3284 439.339 62.7204 439.68C62.123 440.021 61.451 440.192 60.7044 440.192ZM60.7044 439.04C61.163 439.04 61.5897 438.928 61.9844 438.704C62.379 438.48 62.699 438.144 62.9444 437.696C63.1897 437.248 63.3124 436.693 63.3124 436.032C63.3124 435.371 63.1897 434.816 62.9444 434.368C62.7097 433.92 62.395 433.584 62.0004 433.36C61.6057 433.136 61.1844 433.024 60.7364 433.024C60.2777 433.024 59.851 433.136 59.4564 433.36C59.0617 433.584 58.7417 433.92 58.4964 434.368C58.251 434.816 58.1284 435.371 58.1284 436.032C58.1284 436.693 58.251 437.248 58.4964 437.696C58.7417 438.144 59.0564 438.48 59.4404 438.704C59.835 438.928 60.2564 439.04 60.7044 439.04ZM66.5571 440V428.48H67.9011V433.424C68.1678 432.933 68.5465 432.555 69.0371 432.288C69.5278 432.011 70.0611 431.872 70.6371 431.872C71.5545 431.872 72.2905 432.16 72.8451 432.736C73.3998 433.301 73.6771 434.176 73.6771 435.36V440H72.3491V435.504C72.3491 433.851 71.6825 433.024 70.3491 433.024C69.6558 433.024 69.0745 433.275 68.6051 433.776C68.1358 434.267 67.9011 434.971 67.9011 435.888V440H66.5571ZM75.7134 440V432.064H76.9294L77.0094 433.488C77.2654 432.987 77.6334 432.592 78.1134 432.304C78.5934 432.016 79.1374 431.872 79.7454 431.872C80.684 431.872 81.4307 432.16 81.9854 432.736C82.5507 433.301 82.8334 434.176 82.8334 435.36V440H81.4894V435.504C81.4894 433.851 80.8067 433.024 79.4414 433.024C78.7587 433.024 78.188 433.275 77.7294 433.776C77.2814 434.267 77.0574 434.971 77.0574 435.888V440H75.7134ZM89.184 440V428.8H92.624C94.5973 428.8 96.048 429.301 96.976 430.304C97.9147 431.307 98.384 432.683 98.384 434.432C98.384 436.149 97.9147 437.509 96.976 438.512C96.048 439.504 94.5973 440 92.624 440H89.184ZM90.528 438.88H92.592C93.68 438.88 94.544 438.704 95.184 438.352C95.8347 437.989 96.2987 437.477 96.576 436.816C96.8533 436.144 96.992 435.349 96.992 434.432C96.992 433.493 96.8533 432.688 96.576 432.016C96.2987 431.344 95.8347 430.827 95.184 430.464C94.544 430.101 93.68 429.92 92.592 429.92H90.528V438.88ZM103.861 440.192C103.114 440.192 102.442 440.021 101.845 439.68C101.247 439.339 100.773 438.859 100.421 438.24C100.079 437.611 99.9086 436.875 99.9086 436.032C99.9086 435.189 100.085 434.459 100.437 433.84C100.789 433.211 101.263 432.725 101.861 432.384C102.469 432.043 103.146 431.872 103.893 431.872C104.639 431.872 105.311 432.043 105.909 432.384C106.506 432.725 106.975 433.211 107.317 433.84C107.669 434.459 107.845 435.189 107.845 436.032C107.845 436.875 107.669 437.611 107.317 438.24C106.965 438.859 106.485 439.339 105.877 439.68C105.279 440.021 104.607 440.192 103.861 440.192ZM103.861 439.04C104.319 439.04 104.746 438.928 105.141 438.704C105.535 438.48 105.855 438.144 106.101 437.696C106.346 437.248 106.469 436.693 106.469 436.032C106.469 435.371 106.346 434.816 106.101 434.368C105.866 433.92 105.551 433.584 105.157 433.36C104.762 433.136 104.341 433.024 103.893 433.024C103.434 433.024 103.007 433.136 102.613 433.36C102.218 433.584 101.898 433.92 101.653 434.368C101.407 434.816 101.285 435.371 101.285 436.032C101.285 436.693 101.407 437.248 101.653 437.696C101.898 438.144 102.213 438.48 102.597 438.704C102.991 438.928 103.413 439.04 103.861 439.04ZM113.281 440.192C112.524 440.192 111.852 440.021 111.265 439.68C110.679 439.328 110.215 438.843 109.873 438.224C109.543 437.605 109.377 436.875 109.377 436.032C109.377 435.2 109.543 434.475 109.873 433.856C110.204 433.227 110.663 432.741 111.249 432.4C111.847 432.048 112.535 431.872 113.313 431.872C114.081 431.872 114.743 432.048 115.297 432.4C115.863 432.741 116.295 433.195 116.593 433.76C116.892 434.325 117.041 434.933 117.041 435.584C117.041 435.701 117.036 435.819 117.025 435.936C117.025 436.053 117.025 436.187 117.025 436.336H110.705C110.737 436.944 110.876 437.451 111.121 437.856C111.377 438.251 111.692 438.549 112.065 438.752C112.449 438.955 112.855 439.056 113.281 439.056C113.836 439.056 114.3 438.928 114.673 438.672C115.047 438.416 115.319 438.069 115.489 437.632H116.817C116.604 438.368 116.193 438.981 115.585 439.472C114.988 439.952 114.22 440.192 113.281 440.192ZM113.281 433.008C112.641 433.008 112.071 433.205 111.569 433.6C111.079 433.984 110.796 434.549 110.721 435.296H115.713C115.681 434.581 115.436 434.021 114.977 433.616C114.519 433.211 113.953 433.008 113.281 433.008Z" fill="black"/>
<circle cx="304" cy="436" r="7.5" stroke="#828BA0"/>
<g filter="url(#filter7_dd)">
<rect x="24" y="472" width="312" height="56" rx="16" fill="white"/>
</g>
<path d="M51.68 504.192C50.6667 504.192 49.872 503.909 49.296 503.344C48.72 502.779 48.432 501.995 48.432 500.992H49.792C49.792 501.557 49.9307 502.032 50.208 502.416C50.4853 502.8 50.9707 502.992 51.664 502.992C52.336 502.992 52.8 502.805 53.056 502.432C53.3227 502.059 53.456 501.595 53.456 501.04V492.8H54.8V501.04C54.8 502.032 54.5227 502.805 53.968 503.36C53.424 503.915 52.6613 504.192 51.68 504.192ZM59.7284 504.192C59.067 504.192 58.5177 504.08 58.0804 503.856C57.643 503.632 57.3177 503.333 57.1044 502.96C56.891 502.587 56.7844 502.181 56.7844 501.744C56.7844 500.933 57.0937 500.309 57.7124 499.872C58.331 499.435 59.1737 499.216 60.2404 499.216H62.3844V499.12C62.3844 498.427 62.203 497.904 61.8404 497.552C61.4777 497.189 60.9924 497.008 60.3844 497.008C59.8617 497.008 59.4084 497.141 59.0244 497.408C58.651 497.664 58.4164 498.043 58.3204 498.544H56.9444C56.9977 497.968 57.1897 497.483 57.5204 497.088C57.8617 496.693 58.283 496.395 58.7844 496.192C59.2857 495.979 59.819 495.872 60.3844 495.872C61.4937 495.872 62.3257 496.171 62.8804 496.768C63.4457 497.355 63.7284 498.139 63.7284 499.12V504H62.5284L62.4484 502.576C62.2244 503.024 61.8937 503.408 61.4564 503.728C61.0297 504.037 60.4537 504.192 59.7284 504.192ZM59.9364 503.056C60.4484 503.056 60.8857 502.923 61.2484 502.656C61.6217 502.389 61.9044 502.043 62.0964 501.616C62.2884 501.189 62.3844 500.741 62.3844 500.272V500.256H60.3524C59.563 500.256 59.003 500.395 58.6724 500.672C58.3524 500.939 58.1924 501.275 58.1924 501.68C58.1924 502.096 58.3417 502.432 58.6404 502.688C58.9497 502.933 59.3817 503.056 59.9364 503.056ZM65.7446 504V496.064H66.9606L67.0406 497.488C67.2966 496.987 67.6646 496.592 68.1446 496.304C68.6246 496.016 69.1686 495.872 69.7766 495.872C70.7153 495.872 71.462 496.16 72.0166 496.736C72.582 497.301 72.8646 498.176 72.8646 499.36V504H71.5206V499.504C71.5206 497.851 70.838 497.024 69.4726 497.024C68.79 497.024 68.2193 497.275 67.7606 497.776C67.3126 498.267 67.0886 498.971 67.0886 499.888V504H65.7446ZM78.4689 504.192C77.7115 504.192 77.0395 504.021 76.4529 503.68C75.8662 503.328 75.4022 502.843 75.0609 502.224C74.7302 501.605 74.5649 500.875 74.5649 500.032C74.5649 499.2 74.7302 498.475 75.0609 497.856C75.3915 497.227 75.8502 496.741 76.4369 496.4C77.0342 496.048 77.7222 495.872 78.5009 495.872C79.2689 495.872 79.9302 496.048 80.4849 496.4C81.0502 496.741 81.4822 497.195 81.7809 497.76C82.0795 498.325 82.2289 498.933 82.2289 499.584C82.2289 499.701 82.2235 499.819 82.2129 499.936C82.2129 500.053 82.2129 500.187 82.2129 500.336H75.8929C75.9249 500.944 76.0635 501.451 76.3089 501.856C76.5649 502.251 76.8795 502.549 77.2529 502.752C77.6369 502.955 78.0422 503.056 78.4689 503.056C79.0235 503.056 79.4875 502.928 79.8609 502.672C80.2342 502.416 80.5062 502.069 80.6769 501.632H82.0049C81.7915 502.368 81.3809 502.981 80.7729 503.472C80.1755 503.952 79.4075 504.192 78.4689 504.192ZM78.4689 497.008C77.8289 497.008 77.2582 497.205 76.7569 497.6C76.2662 497.984 75.9835 498.549 75.9089 499.296H80.9009C80.8689 498.581 80.6235 498.021 80.1649 497.616C79.7062 497.211 79.1409 497.008 78.4689 497.008ZM88.3246 504V492.8H91.7646C93.738 492.8 95.1886 493.301 96.1166 494.304C97.0553 495.307 97.5246 496.683 97.5246 498.432C97.5246 500.149 97.0553 501.509 96.1166 502.512C95.1886 503.504 93.738 504 91.7646 504H88.3246ZM89.6686 502.88H91.7326C92.8206 502.88 93.6846 502.704 94.3246 502.352C94.9753 501.989 95.4393 501.477 95.7166 500.816C95.994 500.144 96.1326 499.349 96.1326 498.432C96.1326 497.493 95.994 496.688 95.7166 496.016C95.4393 495.344 94.9753 494.827 94.3246 494.464C93.6846 494.101 92.8206 493.92 91.7326 493.92H89.6686V502.88ZM103.001 504.192C102.255 504.192 101.583 504.021 100.985 503.68C100.388 503.339 99.9133 502.859 99.5613 502.24C99.2199 501.611 99.0493 500.875 99.0493 500.032C99.0493 499.189 99.2253 498.459 99.5773 497.84C99.9293 497.211 100.404 496.725 101.001 496.384C101.609 496.043 102.287 495.872 103.033 495.872C103.78 495.872 104.452 496.043 105.049 496.384C105.647 496.725 106.116 497.211 106.457 497.84C106.809 498.459 106.985 499.189 106.985 500.032C106.985 500.875 106.809 501.611 106.457 502.24C106.105 502.859 105.625 503.339 105.017 503.68C104.42 504.021 103.748 504.192 103.001 504.192ZM103.001 503.04C103.46 503.04 103.887 502.928 104.281 502.704C104.676 502.48 104.996 502.144 105.241 501.696C105.487 501.248 105.609 500.693 105.609 500.032C105.609 499.371 105.487 498.816 105.241 498.368C105.007 497.92 104.692 497.584 104.297 497.36C103.903 497.136 103.481 497.024 103.033 497.024C102.575 497.024 102.148 497.136 101.753 497.36C101.359 497.584 101.039 497.92 100.793 498.368C100.548 498.816 100.425 499.371 100.425 500.032C100.425 500.693 100.548 501.248 100.793 501.696C101.039 502.144 101.353 502.48 101.737 502.704C102.132 502.928 102.553 503.04 103.001 503.04ZM112.422 504.192C111.665 504.192 110.993 504.021 110.406 503.68C109.819 503.328 109.355 502.843 109.014 502.224C108.683 501.605 108.518 500.875 108.518 500.032C108.518 499.2 108.683 498.475 109.014 497.856C109.345 497.227 109.803 496.741 110.39 496.4C110.987 496.048 111.675 495.872 112.454 495.872C113.222 495.872 113.883 496.048 114.438 496.4C115.003 496.741 115.435 497.195 115.734 497.76C116.033 498.325 116.182 498.933 116.182 499.584C116.182 499.701 116.177 499.819 116.166 499.936C116.166 500.053 116.166 500.187 116.166 500.336H109.846C109.878 500.944 110.017 501.451 110.262 501.856C110.518 502.251 110.833 502.549 111.206 502.752C111.59 502.955 111.995 503.056 112.422 503.056C112.977 503.056 113.441 502.928 113.814 502.672C114.187 502.416 114.459 502.069 114.63 501.632H115.958C115.745 502.368 115.334 502.981 114.726 503.472C114.129 503.952 113.361 504.192 112.422 504.192ZM112.422 497.008C111.782 497.008 111.211 497.205 110.71 497.6C110.219 497.984 109.937 498.549 109.862 499.296H114.854C114.822 498.581 114.577 498.021 114.118 497.616C113.659 497.211 113.094 497.008 112.422 497.008Z" fill="black"/>
<circle cx="304" cy="500" r="7.5" stroke="#828BA0"/>
<g filter="url(#filter8_d)">
<rect x="24" y="553" width="312" height="48" rx="24" fill="#5E6DF2"/>
</g>
<path d="M156.86 582V571.5H158.78V582H156.86ZM160.77 582V574.56H162.465L162.63 575.565C162.87 575.205 163.185 574.92 163.575 574.71C163.975 574.49 164.435 574.38 164.955 574.38C166.105 574.38 166.92 574.825 167.4 575.715C167.67 575.305 168.03 574.98 168.48 574.74C168.94 574.5 169.44 574.38 169.98 574.38C170.95 574.38 171.695 574.67 172.215 575.25C172.735 575.83 172.995 576.68 172.995 577.8V582H171.075V577.98C171.075 577.34 170.95 576.85 170.7 576.51C170.46 576.17 170.085 576 169.575 576C169.055 576 168.635 576.19 168.315 576.57C168.005 576.95 167.85 577.48 167.85 578.16V582H165.93V577.98C165.93 577.34 165.805 576.85 165.555 576.51C165.305 576.17 164.92 576 164.4 576C163.89 576 163.475 576.19 163.155 576.57C162.845 576.95 162.69 577.48 162.69 578.16V582H160.77ZM174.818 585.3V574.56H176.528L176.738 575.625C176.978 575.295 177.293 575.005 177.683 574.755C178.083 574.505 178.598 574.38 179.228 574.38C179.928 574.38 180.553 574.55 181.103 574.89C181.653 575.23 182.088 575.695 182.408 576.285C182.728 576.875 182.888 577.545 182.888 578.295C182.888 579.045 182.728 579.715 182.408 580.305C182.088 580.885 181.653 581.345 181.103 581.685C180.553 582.015 179.928 582.18 179.228 582.18C178.668 582.18 178.178 582.075 177.758 581.865C177.338 581.655 176.998 581.36 176.738 580.98V585.3H174.818ZM178.823 580.5C179.433 580.5 179.938 580.295 180.338 579.885C180.738 579.475 180.938 578.945 180.938 578.295C180.938 577.645 180.738 577.11 180.338 576.69C179.938 576.27 179.433 576.06 178.823 576.06C178.203 576.06 177.693 576.27 177.293 576.69C176.903 577.1 176.708 577.63 176.708 578.28C176.708 578.93 176.903 579.465 177.293 579.885C177.693 580.295 178.203 580.5 178.823 580.5ZM188.173 582.18C187.453 582.18 186.803 582.015 186.223 581.685C185.653 581.355 185.198 580.9 184.858 580.32C184.528 579.73 184.363 579.05 184.363 578.28C184.363 577.51 184.533 576.835 184.873 576.255C185.213 575.665 185.668 575.205 186.238 574.875C186.818 574.545 187.468 574.38 188.188 574.38C188.898 574.38 189.538 574.545 190.108 574.875C190.688 575.205 191.143 575.665 191.473 576.255C191.813 576.835 191.983 577.51 191.983 578.28C191.983 579.05 191.813 579.73 191.473 580.32C191.143 580.9 190.688 581.355 190.108 581.685C189.528 582.015 188.883 582.18 188.173 582.18ZM188.173 580.515C188.673 580.515 189.108 580.33 189.478 579.96C189.848 579.58 190.033 579.02 190.033 578.28C190.033 577.54 189.848 576.985 189.478 576.615C189.108 576.235 188.678 576.045 188.188 576.045C187.678 576.045 187.238 576.235 186.868 576.615C186.508 576.985 186.328 577.54 186.328 578.28C186.328 579.02 186.508 579.58 186.868 579.96C187.238 580.33 187.673 580.515 188.173 580.515ZM193.7 582V574.56H195.41L195.59 575.955C195.86 575.475 196.225 575.095 196.685 574.815C197.155 574.525 197.705 574.38 198.335 574.38V576.405H197.795C197.375 576.405 197 576.47 196.67 576.6C196.34 576.73 196.08 576.955 195.89 577.275C195.71 577.595 195.62 578.04 195.62 578.61V582H193.7ZM202.962 582C202.182 582 201.557 581.81 201.087 581.43C200.617 581.05 200.382 580.375 200.382 579.405V576.165H199.107V574.56H200.382L200.607 572.565H202.302V574.56H204.312V576.165H202.302V579.42C202.302 579.78 202.377 580.03 202.527 580.17C202.687 580.3 202.957 580.365 203.337 580.365H204.267V582H202.962Z" fill="white"/>
<defs>
<filter id="filter0_dd" x="15" y="143" width="332" height="77" filterUnits="userSpaceOnUse" color-interpolation-filters="sRGB">
<feFlood flood-opacity="0" result="BackgroundImageFix"/>
<feColorMatrix in="SourceAlpha" type="matrix" values="0 0 0 0 0 0 0 0 0 0 0 0 0 0 0 0 0 0 127 0"/>
<feOffset dx="-1" dy="-1"/>
<feGaussianBlur stdDeviation="4"/>
<feColorMatrix type="matrix" values="0 0 0 0 0.954167 0 0 0 0 0.9615 0 0 0 0 1 0 0 0 0.5 0"/>
<feBlend mode="normal" in2="BackgroundImageFix" result="effect1_dropShadow"/>
<feColorMatrix in="SourceAlpha" type="matrix" values="0 0 0 0 0 0 0 0 0 0 0 0 0 0 0 0 0 0 127 0"/>
<feOffset dx="3" dy="4"/>
<feGaussianBlur stdDeviation="4"/>
<feColorMatrix type="matrix" values="0 0 0 0 0.847656 0 0 0 0 0.863379 0 0 0 0 0.9375 0 0 0 1 0"/>
<feBlend mode="normal" in2="effect1_dropShadow" result="effect2_dropShadow"/>
<feBlend mode="normal" in="SourceGraphic" in2="effect2_dropShadow" result="shape"/>
</filter>
<filter id="filter1_dd" x="15" y="207" width="332" height="77" filterUnits="userSpaceOnUse" color-interpolation-filters="sRGB">
<feFlood flood-opacity="0" result="BackgroundImageFix"/>
<feColorMatrix in="SourceAlpha" type="matrix" values="0 0 0 0 0 0 0 0 0 0 0 0 0 0 0 0 0 0 127 0"/>
<feOffset dx="-1" dy="-1"/>
<feGaussianBlur stdDeviation="4"/>
<feColorMatrix type="matrix" values="0 0 0 0 0.954167 0 0 0 0 0.9615 0 0 0 0 1 0 0 0 0.5 0"/>
<feBlend mode="normal" in2="BackgroundImageFix" result="effect1_dropShadow"/>
<feColorMatrix in="SourceAlpha" type="matrix" values="0 0 0 0 0 0 0 0 0 0 0 0 0 0 0 0 0 0 127 0"/>
<feOffset dx="3" dy="4"/>
<feGaussianBlur stdDeviation="4"/>
<feColorMatrix type="matrix" values="0 0 0 0 0.847656 0 0 0 0 0.863379 0 0 0 0 0.9375 0 0 0 1 0"/>
<feBlend mode="normal" in2="effect1_dropShadow" result="effect2_dropShadow"/>
<feBlend mode="normal" in="SourceGraphic" in2="effect2_dropShadow" result="shape"/>
</filter>
<filter id="filter2_dd" x="15" y="79" width="332" height="77" filterUnits="userSpaceOnUse" color-interpolation-filters="sRGB">
<feFlood flood-opacity="0" result="BackgroundImageFix"/>
<feColorMatrix in="SourceAlpha" type="matrix" values="0 0 0 0 0 0 0 0 0 0 0 0 0 0 0 0 0 0 127 0"/>
<feOffset dx="-1" dy="-1"/>
<feGaussianBlur stdDeviation="4"/>
<feColorMatrix type="matrix" values="0 0 0 0 0.954167 0 0 0 0 0.9615 0 0 0 0 1 0 0 0 0.5 0"/>
<feBlend mode="normal" in2="BackgroundImageFix" result="effect1_dropShadow"/>
<feColorMatrix in="SourceAlpha" type="matrix" values="0 0 0 0 0 0 0 0 0 0 0 0 0 0 0 0 0 0 127 0"/>
<feOffset dx="3" dy="4"/>
<feGaussianBlur stdDeviation="4"/>
<feColorMatrix type="matrix" values="0 0 0 0 0.847656 0 0 0 0 0.863379 0 0 0 0 0.9375 0 0 0 1 0"/>
<feBlend mode="normal" in2="effect1_dropShadow" result="effect2_dropShadow"/>
<feBlend mode="normal" in="SourceGraphic" in2="effect2_dropShadow" result="shape"/>
</filter>
<filter id="filter3_dd" x="15" y="15" width="332" height="77" filterUnits="userSpaceOnUse" color-interpolation-filters="sRGB">
<feFlood flood-opacity="0" result="BackgroundImageFix"/>
<feColorMatrix in="SourceAlpha" type="matrix" values="0 0 0 0 0 0 0 0 0 0 0 0 0 0 0 0 0 0 127 0"/>
<feOffset dx="-1" dy="-1"/>
<feGaussianBlur stdDeviation="4"/>
<feColorMatrix type="matrix" values="0 0 0 0 0.954167 0 0 0 0 0.9615 0 0 0 0 1 0 0 0 0.5 0"/>
<feBlend mode="normal" in2="BackgroundImageFix" result="effect1_dropShadow"/>
<feColorMatrix in="SourceAlpha" type="matrix" values="0 0 0 0 0 0 0 0 0 0 0 0 0 0 0 0 0 0 127 0"/>
<feOffset dx="3" dy="4"/>
<feGaussianBlur stdDeviation="4"/>
<feColorMatrix type="matrix" values="0 0 0 0 0.847656 0 0 0 0 0.863379 0 0 0 0 0.9375 0 0 0 1 0"/>
<feBlend mode="normal" in2="effect1_dropShadow" result="effect2_dropShadow"/>
<feBlend mode="normal" in="SourceGraphic" in2="effect2_dropShadow" result="shape"/>
</filter>
<filter id="filter4_dd" x="15" y="271" width="332" height="77" filterUnits="userSpaceOnUse" color-interpolation-filters="sRGB">
<feFlood flood-opacity="0" result="BackgroundImageFix"/>
<feColorMatrix in="SourceAlpha" type="matrix" values="0 0 0 0 0 0 0 0 0 0 0 0 0 0 0 0 0 0 127 0"/>
<feOffset dx="-1" dy="-1"/>
<feGaussianBlur stdDeviation="4"/>
<feColorMatrix type="matrix" values="0 0 0 0 0.954167 0 0 0 0 0.9615 0 0 0 0 1 0 0 0 0.5 0"/>
<feBlend mode="normal" in2="BackgroundImageFix" result="effect1_dropShadow"/>
<feColorMatrix in="SourceAlpha" type="matrix" values="0 0 0 0 0 0 0 0 0 0 0 0 0 0 0 0 0 0 127 0"/>
<feOffset dx="3" dy="4"/>
<feGaussianBlur stdDeviation="4"/>
<feColorMatrix type="matrix" values="0 0 0 0 0.847656 0 0 0 0 0.863379 0 0 0 0 0.9375 0 0 0 1 0"/>
<feBlend mode="normal" in2="effect1_dropShadow" result="effect2_dropShadow"/>
<feBlend mode="normal" in="SourceGraphic" in2="effect2_dropShadow" result="shape"/>
</filter>
<filter id="filter5_dd" x="15" y="335" width="332" height="77" filterUnits="userSpaceOnUse" color-interpolation-filters="sRGB">
<feFlood flood-opacity="0" result="BackgroundImageFix"/>
<feColorMatrix in="SourceAlpha" type="matrix" values="0 0 0 0 0 0 0 0 0 0 0 0 0 0 0 0 0 0 127 0"/>
<feOffset dx="-1" dy="-1"/>
<feGaussianBlur stdDeviation="4"/>
<feColorMatrix type="matrix" values="0 0 0 0 0.954167 0 0 0 0 0.9615 0 0 0 0 1 0 0 0 0.5 0"/>
<feBlend mode="normal" in2="BackgroundImageFix" result="effect1_dropShadow"/>
<feColorMatrix in="SourceAlpha" type="matrix" values="0 0 0 0 0 0 0 0 0 0 0 0 0 0 0 0 0 0 127 0"/>
<feOffset dx="3" dy="4"/>
<feGaussianBlur stdDeviation="4"/>
<feColorMatrix type="matrix" values="0 0 0 0 0.847656 0 0 0 0 0.863379 0 0 0 0 0.9375 0 0 0 1 0"/>
<feBlend mode="normal" in2="effect1_dropShadow" result="effect2_dropShadow"/>
<feBlend mode="normal" in="SourceGraphic" in2="effect2_dropShadow" result="shape"/>
</filter>
<filter id="filter6_dd" x="15" y="399" width="332" height="77" filterUnits="userSpaceOnUse" color-interpolation-filters="sRGB">
<feFlood flood-opacity="0" result="BackgroundImageFix"/>
<feColorMatrix in="SourceAlpha" type="matrix" values="0 0 0 0 0 0 0 0 0 0 0 0 0 0 0 0 0 0 127 0"/>
<feOffset dx="-1" dy="-1"/>
<feGaussianBlur stdDeviation="4"/>
<feColorMatrix type="matrix" values="0 0 0 0 0.954167 0 0 0 0 0.9615 0 0 0 0 1 0 0 0 0.5 0"/>
<feBlend mode="normal" in2="BackgroundImageFix" result="effect1_dropShadow"/>
<feColorMatrix in="SourceAlpha" type="matrix" values="0 0 0 0 0 0 0 0 0 0 0 0 0 0 0 0 0 0 127 0"/>
<feOffset dx="3" dy="4"/>
<feGaussianBlur stdDeviation="4"/>
<feColorMatrix type="matrix" values="0 0 0 0 0.847656 0 0 0 0 0.863379 0 0 0 0 0.9375 0 0 0 1 0"/>
<feBlend mode="normal" in2="effect1_dropShadow" result="effect2_dropShadow"/>
<feBlend mode="normal" in="SourceGraphic" in2="effect2_dropShadow" result="shape"/>
</filter>
<filter id="filter7_dd" x="15" y="463" width="332" height="77" filterUnits="userSpaceOnUse" color-interpolation-filters="sRGB">
<feFlood flood-opacity="0" result="BackgroundImageFix"/>
<feColorMatrix in="SourceAlpha" type="matrix" values="0 0 0 0 0 0 0 0 0 0 0 0 0 0 0 0 0 0 127 0"/>
<feOffset dx="-1" dy="-1"/>
<feGaussianBlur stdDeviation="4"/>
<feColorMatrix type="matrix" values="0 0 0 0 0.954167 0 0 0 0 0.9615 0 0 0 0 1 0 0 0 0.5 0"/>
<feBlend mode="normal" in2="BackgroundImageFix" result="effect1_dropShadow"/>
<feColorMatrix in="SourceAlpha" type="matrix" values="0 0 0 0 0 0 0 0 0 0 0 0 0 0 0 0 0 0 127 0"/>
<feOffset dx="3" dy="4"/>
<feGaussianBlur stdDeviation="4"/>
<feColorMatrix type="matrix" values="0 0 0 0 0.847656 0 0 0 0 0.863379 0 0 0 0 0.9375 0 0 0 1 0"/>
<feBlend mode="normal" in2="effect1_dropShadow" result="effect2_dropShadow"/>
<feBlend mode="normal" in="SourceGraphic" in2="effect2_dropShadow" result="shape"/>
</filter>
<filter id="filter8_d" x="24" y="553" width="312" height="52" filterUnits="userSpaceOnUse" color-interpolation-filters="sRGB">
<feFlood flood-opacity="0" result="BackgroundImageFix"/>
<feColorMatrix in="SourceAlpha" type="matrix" values="0 0 0 0 0 0 0 0 0 0 0 0 0 0 0 0 0 0 127 0"/>
<feOffset dy="4"/>
<feColorMatrix type="matrix" values="0 0 0 0 0.224514 0 0 0 0 0.290396 0 0 0 0 0.883333 0 0 0 1 0"/>
<feBlend mode="normal" in2="BackgroundImageFix" result="effect1_dropShadow"/>
<feBlend mode="normal" in="SourceGraphic" in2="effect1_dropShadow" result="shape"/>
</filter>
</defs>
</svg>
