<svg width="332" height="117" viewBox="0 0 332 117" fill="none" xmlns="http://www.w3.org/2000/svg">
<mask id="mask0" mask-type="alpha" maskUnits="userSpaceOnUse" x="9" y="9" width="312" height="96">
<rect x="9" y="9" width="312" height="96" rx="24" fill="white"/>
</mask>
<g mask="url(#mask0)">
<path d="M177.371 81.6723L180.765 90.5867L171.347 89.0688L177.371 81.6723Z" fill="#ED33B9"/>
<path d="M273.034 24.6909L261.091 28.0694L264.137 16.0365L273.034 24.6909Z" fill="#FFF129"/>
<path d="M94.1349 81.539L91.4735 89.189L86.1791 83.0593L94.1349 81.539Z" fill="#ED33B9"/>
<path d="M91.2369 27.2369L96.5294 28.655L92.655 32.5294L91.2369 27.2369Z" fill="#51E5FF"/>
<path d="M32.392 17.0019L41.5643 22.4901L32.2252 27.6895L32.392 17.0019Z" fill="#51E5FF"/>
<path d="M240.648 27.8505L250.076 29.146L244.24 36.663L240.648 27.8505Z" fill="#51E5FF"/>
<path d="M299.316 83.4991L304.038 93.4078L293.096 92.5434L299.316 83.4991Z" fill="#51E5FF"/>
<circle cx="226.513" cy="95.5129" r="1.51294" fill="#FFF129"/>
<circle cx="306.759" cy="42.1471" r="1.51294" fill="#51E5FF"/>
<circle cx="55.5129" cy="95.5129" r="1.51294" fill="#23CE6B"/>
<circle cx="269.76" cy="91.3687" r="1.65048" fill="#ED33B9"/>
<path fill-rule="evenodd" clip-rule="evenodd" d="M129.518 94.9225L127.732 93.2454L121.303 100.092L123.089 101.769L127.841 96.7087L132.604 101.181L134.281 99.3947L129.518 94.9225L129.518 94.9225ZM118.217 93.834L122.98 98.3061L121.303 100.092L116.54 95.6201L118.217 93.834Z" fill="#6E8EFF"/>
<path fill-rule="evenodd" clip-rule="evenodd" d="M27.3543 89.6254L21.6961 92.8922L20.4711 90.7704L26.1293 87.5036L27.3543 89.6254ZM24.7801 80.2667L22.6583 81.4917L27.3543 89.6254L29.4761 88.4004L26.0052 82.3885L31.6633 79.1218L30.4383 76.9999L24.7801 80.2667L24.7801 80.2667Z" fill="#6E8EFF"/>
<path fill-rule="evenodd" clip-rule="evenodd" d="M293.036 36.5936L286.911 38.8662L286.058 36.5691L292.184 34.2965L289.769 27.7881L292.066 26.9359L292.066 26.9359L298.192 24.6633L299.044 26.9604L292.919 29.2329L295.333 35.7414L293.036 36.5936Z" fill="#6E8EFF"/>
</g>
</svg>
