<svg width="16" height="16" viewBox="0 0 16 16" fill="none" xmlns="http://www.w3.org/2000/svg">
<g clip-path="url(#clip0)">
<path d="M7.79139 9.66957C8.71347 9.66957 9.46096 8.92208 9.46096 8.00001C9.46096 7.07793 8.71347 6.33044 7.79139 6.33044C6.86932 6.33044 6.12183 7.07793 6.12183 8.00001C6.12183 8.92208 6.86932 9.66957 7.79139 9.66957Z" fill="#FAC847"/>
<path d="M15.2484 9.53043L15.232 9.51722L14.1343 8.65635C14.0648 8.60135 14.0093 8.53065 13.9724 8.45005C13.9355 8.36945 13.9183 8.28125 13.9221 8.1927V7.79061C13.9186 7.70261 13.9361 7.61505 13.973 7.53511C14.01 7.45518 14.0653 7.38515 14.1346 7.33078L15.232 6.46956L15.2484 6.45635C15.4176 6.31536 15.5312 6.11877 15.5688 5.90173C15.6064 5.68469 15.5655 5.46135 15.4536 5.27165L13.968 2.70122C13.9663 2.69879 13.9648 2.69623 13.9635 2.69357C13.8509 2.50649 13.6764 2.36475 13.4702 2.29295C13.264 2.22115 13.0392 2.22383 12.8348 2.30052L12.8226 2.30504L11.5322 2.82435C11.4507 2.85728 11.3626 2.87038 11.2751 2.86258C11.1876 2.85478 11.1032 2.8263 11.0289 2.77948C10.9148 2.70759 10.7989 2.63965 10.6811 2.57565C10.6047 2.53424 10.5391 2.47545 10.4896 2.40404C10.4401 2.33262 10.4081 2.25058 10.3962 2.16452L10.2018 0.787478L10.1976 0.762435C10.1553 0.549147 10.0408 0.356929 9.87345 0.218085C9.7061 0.07924 9.49606 0.00223134 9.27863 0H6.30402C6.08352 0.000705574 5.87034 0.0792057 5.70204 0.221671C5.53374 0.364136 5.42112 0.561426 5.38402 0.778783L5.38089 0.798261L5.18715 2.17809C5.17526 2.2639 5.14351 2.34575 5.09442 2.41712C5.04532 2.4885 4.98025 2.54743 4.90436 2.58922C4.78623 2.65285 4.67022 2.72036 4.55654 2.79165C4.48233 2.83819 4.39815 2.86645 4.3109 2.87413C4.22365 2.88181 4.13582 2.86868 4.05463 2.83583L2.76315 2.31409L2.75097 2.30922C2.54626 2.23244 2.32112 2.22986 2.1147 2.30193C1.90829 2.374 1.73367 2.51615 1.62123 2.70365L1.61671 2.7113L0.12906 5.28348C0.0169316 5.47337 -0.0239935 5.69695 0.0136033 5.91425C0.0512002 6.13155 0.164867 6.32839 0.334278 6.46956L0.350626 6.48278L1.44836 7.34365C1.51788 7.39865 1.57336 7.46935 1.61024 7.54995C1.64713 7.63055 1.66436 7.71875 1.66054 7.8073V8.20939C1.66402 8.29738 1.64657 8.38495 1.60963 8.46489C1.57268 8.54482 1.51729 8.61485 1.44802 8.66922L0.350626 9.53043L0.334278 9.54365C0.165035 9.68464 0.0514602 9.88123 0.0138635 10.0983C-0.0237331 10.3153 0.0170997 10.5386 0.12906 10.7283L1.61463 13.2988C1.61634 13.3012 1.61785 13.3038 1.61915 13.3064C1.73171 13.4935 1.90624 13.6353 2.11242 13.707C2.31861 13.7788 2.54343 13.7762 2.74784 13.6995L2.76002 13.695L4.04941 13.1757C4.13086 13.1427 4.21896 13.1296 4.30647 13.1374C4.39398 13.1452 4.47837 13.1737 4.55271 13.2205C4.6668 13.2926 4.78274 13.3606 4.90054 13.4243C4.97691 13.4658 5.04249 13.5245 5.09197 13.596C5.14145 13.6674 5.17346 13.7494 5.18541 13.8355L5.3788 15.2125L5.38297 15.2376C5.42537 15.4512 5.54014 15.6437 5.70791 15.7826C5.87569 15.9215 6.08622 15.9982 6.30402 16H9.27863C9.49913 15.9993 9.7123 15.9208 9.8806 15.7783C10.0489 15.6359 10.1615 15.4386 10.1986 15.2212L10.2018 15.2017L10.3955 13.8219C10.4076 13.7359 10.4396 13.654 10.489 13.5826C10.5384 13.5112 10.6038 13.4524 10.68 13.4108C10.799 13.3468 10.9151 13.279 11.0278 13.2083C11.102 13.1618 11.1862 13.1335 11.2735 13.1259C11.3607 13.1182 11.4486 13.1313 11.5298 13.1642L12.8212 13.6842L12.8334 13.689C13.0381 13.766 13.2633 13.7686 13.4697 13.6965C13.6762 13.6244 13.8508 13.4822 13.9631 13.2946C13.9645 13.292 13.966 13.2894 13.9677 13.287L15.4532 10.7169C15.5656 10.527 15.6066 10.3033 15.5691 10.086C15.5316 9.86856 15.4179 9.67164 15.2484 9.53043V9.53043ZM10.5708 8.13078C10.5455 8.66942 10.3642 9.18909 10.049 9.62661C9.73378 10.0641 9.29825 10.4006 8.79535 10.5952C8.29245 10.7898 7.74385 10.8341 7.21626 10.7226C6.68866 10.6112 6.20481 10.3489 5.82354 9.96756C5.44227 9.58624 5.18001 9.10236 5.06864 8.57475C4.95728 8.04715 5.00161 7.49855 5.19625 6.99567C5.39089 6.4928 5.72745 6.0573 6.165 5.74216C6.60255 5.42701 7.12225 5.24579 7.66089 5.22052C8.04759 5.2035 8.4336 5.26712 8.79437 5.40736C9.15515 5.54759 9.4828 5.76137 9.75649 6.03509C10.0302 6.3088 10.2439 6.63648 10.3841 6.99727C10.5243 7.35807 10.5879 7.74409 10.5708 8.13078V8.13078Z" fill="#FAC847"/>
</g>
<defs>
<clipPath id="clip0">
<rect width="15.5827" height="16" fill="white"/>
</clipPath>
</defs>
</svg>
