<svg width="80" height="16" viewBox="0 0 80 16" fill="none" xmlns="http://www.w3.org/2000/svg">
<g clip-path="url(#clip0)">
<path d="M2.69349 15.0593C1.83371 14.6889 1.17032 14.158 0.701712 13.4667C0.233904 12.7745 0 11.9746 0 11.0661V10.6678C0 10.5983 0.0239492 10.5385 0.0734443 10.4898C0.122141 10.4411 0.181216 10.4163 0.251467 10.4163H3.16449C3.23394 10.4163 3.29382 10.4411 3.34251 10.4898C3.39121 10.5393 3.41596 10.5983 3.41596 10.6678V10.9193C3.41596 11.3807 3.64667 11.7822 4.10729 12.1247C4.56871 12.4672 5.1898 12.638 5.97294 12.638C6.58763 12.638 7.04187 12.5055 7.33565 12.2397C7.62943 11.9746 7.77552 11.6665 7.77552 11.3176C7.77552 11.0382 7.6885 10.8115 7.51367 10.6367C7.33884 10.4618 7.10494 10.3157 6.81116 10.1968C6.51738 10.0778 6.06315 9.91418 5.44845 9.70423C5.36463 9.66192 5.2808 9.63078 5.19698 9.61003C5.11316 9.58927 5.03652 9.56452 4.96627 9.53658C4.0578 9.2436 3.26827 8.92588 2.59769 8.58261C1.92711 8.24013 1.35393 7.76514 0.878937 7.15763C0.404742 6.54932 0.167645 5.79891 0.167645 4.904C0.167645 4.03784 0.394364 3.27945 0.848601 2.62963C1.30284 1.9798 1.9351 1.48086 2.74538 1.1312C3.55566 0.782343 4.47132 0.607513 5.49156 0.607513C6.56768 0.607513 7.53523 0.803099 8.3942 1.19427C9.25318 1.58544 9.92775 2.13787 10.4163 2.84996C10.9057 3.56285 11.15 4.38031 11.15 5.30236V5.59614C11.15 5.66639 11.1252 5.72546 11.0765 5.77416C11.027 5.82366 10.9679 5.8476 10.8985 5.8476H7.98547C7.91522 5.8476 7.85615 5.82366 7.80745 5.77416C7.75875 5.72546 7.734 5.66639 7.734 5.59614V5.44925C7.734 4.95989 7.51686 4.5272 7.08418 4.1496C6.6507 3.7728 6.07113 3.5836 5.34467 3.5836C4.79942 3.5836 4.37313 3.69537 4.06578 3.91889C3.75843 4.14242 3.60436 4.45695 3.60436 4.86169C3.60436 5.16904 3.70175 5.4245 3.89814 5.62647C4.09372 5.82924 4.39788 6.01764 4.8098 6.19247C5.22173 6.3673 5.85399 6.59402 6.70658 6.87343C7.68451 7.20872 8.44609 7.5025 8.99134 7.75396C9.53658 8.00543 10.0499 8.41416 10.5321 8.98016C11.0142 9.54616 11.2553 10.2902 11.2553 11.2122C11.2553 12.1207 11.0246 12.903 10.564 13.5601C10.1026 14.2171 9.45675 14.7232 8.62492 15.0792C7.79308 15.4353 6.82553 15.6141 5.72227 15.6141C4.56153 15.6149 3.55247 15.4297 2.69349 15.0593Z" fill="#2C303A"/>
<path d="M12.9213 15.3738C12.8718 15.3251 12.8479 15.266 12.8479 15.1958V4.86249C12.8479 4.79304 12.8718 4.73316 12.9213 4.68447C12.97 4.63577 13.0291 4.61102 13.0994 4.61102H16.0755C16.1449 4.61102 16.2048 4.63577 16.2535 4.68447C16.3022 4.73396 16.3269 4.79304 16.3269 4.86249V15.1958C16.3269 15.266 16.3022 15.3251 16.2535 15.3738C16.204 15.4233 16.1449 15.4473 16.0755 15.4473H13.0994C13.0291 15.4473 12.97 15.4225 12.9213 15.3738Z" fill="#2C303A"/>
<path d="M24.9095 0.848591C24.9582 0.799894 25.0173 0.775146 25.0876 0.775146H28.0637C28.1331 0.775146 28.193 0.799894 28.2417 0.848591C28.2904 0.897288 28.3151 0.957161 28.3151 1.02661V15.195C28.3151 15.2652 28.2904 15.3243 28.2417 15.373C28.1922 15.4225 28.1331 15.4464 28.0637 15.4464H25.0876C25.0173 15.4464 24.9582 15.4225 24.9095 15.373C24.8609 15.3243 24.8361 15.2652 24.8361 15.195V14.5036C24.8361 14.4621 24.8217 14.4374 24.7946 14.4302C24.7666 14.423 24.7387 14.4334 24.7108 14.4613C24.152 15.2301 23.3481 15.6141 22.3007 15.6141C21.3507 15.6141 20.5085 15.3275 19.7748 14.7543C19.0412 14.1811 18.5207 13.3996 18.2133 12.4073C17.9898 11.6529 17.8781 10.8426 17.8781 9.97564C17.8781 8.99771 18.0249 8.11718 18.3179 7.33484C18.6388 6.46868 19.1529 5.77016 19.8587 5.23848C20.5644 4.70761 21.4201 4.44177 22.426 4.44177C23.4319 4.44177 24.1935 4.76988 24.7108 5.42688C24.7387 5.46919 24.7666 5.48277 24.7946 5.46919C24.8225 5.45562 24.8361 5.42688 24.8361 5.38537V1.02661C24.8361 0.957161 24.8609 0.898086 24.9095 0.848591ZM24.8361 10.0395C24.8361 9.22922 24.7028 8.60095 24.4377 8.1531C24.144 7.66374 23.732 7.41946 23.2012 7.41946C22.628 7.41946 22.2017 7.67093 21.9223 8.17386C21.6429 8.64885 21.5032 9.27074 21.5032 10.0395C21.5032 10.7803 21.6293 11.3807 21.8808 11.8421C22.1745 12.373 22.6144 12.6388 23.2012 12.6388C23.76 12.6388 24.1863 12.3666 24.4801 11.8213C24.7172 11.3743 24.8361 10.7803 24.8361 10.0395Z" fill="#2C303A"/>
<path d="M40.242 10.7309C40.2276 10.8985 40.1366 10.9823 39.9697 10.9823H33.5769C33.549 10.9823 33.521 10.9927 33.4931 11.0135C33.4651 11.0342 33.4579 11.059 33.4723 11.0869C33.5003 11.241 33.5697 11.443 33.6823 11.6944C33.8499 11.9874 34.1014 12.2253 34.4367 12.4073C34.772 12.5893 35.1839 12.6795 35.6732 12.6795C36.5538 12.6795 37.2451 12.3938 37.748 11.8206C37.8039 11.7511 37.8662 11.716 37.9364 11.716C38.0059 11.716 38.0626 11.7439 38.1041 11.7998L39.7183 13.6439C39.7741 13.6862 39.8021 13.7421 39.8021 13.8115C39.8021 13.8674 39.7734 13.9233 39.7183 13.9792C39.2289 14.5101 38.6246 14.9156 37.9053 15.195C37.1852 15.4744 36.3997 15.6141 35.5471 15.6141C34.2754 15.6141 33.1961 15.3387 32.3092 14.7863C31.4215 14.2346 30.782 13.4627 30.3917 12.4704C30.0979 11.7719 29.9518 10.8985 29.9518 9.85034C29.9518 9.12388 30.0635 8.42536 30.2871 7.75399C30.6503 6.72018 31.2474 5.9067 32.0793 5.31196C32.9103 4.71802 33.8986 4.42105 35.045 4.42105C35.967 4.42105 36.7917 4.61983 37.5181 5.01819C38.2446 5.41654 38.8353 5.96897 39.2888 6.67388C39.743 7.37958 40.04 8.17948 40.1797 9.07359C40.2483 9.4943 40.2691 10.0467 40.242 10.7309ZM33.5976 8.44612C33.5418 8.60019 33.5066 8.74708 33.4931 8.88599C33.4651 8.95624 33.4931 8.99056 33.5769 8.99056H36.553C36.6089 8.99056 36.6368 8.96262 36.6368 8.90674C36.6368 8.79498 36.6081 8.65528 36.553 8.48763C36.4548 8.13877 36.2768 7.87293 36.0181 7.69092C35.7595 7.5097 35.4346 7.4187 35.0434 7.4187C34.3169 7.41949 33.8347 7.76197 33.5976 8.44612Z" fill="#2C303A"/>
<path d="M41.7396 15.3738C41.6909 15.3251 41.6661 15.266 41.6661 15.1958V1.02661C41.6661 0.957161 41.6901 0.897288 41.7396 0.848591C41.7883 0.799894 41.8482 0.775146 41.9176 0.775146H44.8937C44.9631 0.775146 45.023 0.799894 45.0717 0.848591C45.1204 0.897288 45.1452 0.957161 45.1452 1.02661V7.5448C45.1452 7.58711 45.1587 7.61105 45.1867 7.61824C45.2146 7.62542 45.2426 7.61505 45.2705 7.58711L47.5553 4.7579C47.6391 4.66051 47.7437 4.61101 47.8698 4.61101H51.2857C51.4254 4.61101 51.4949 4.65971 51.4949 4.7579C51.4949 4.79941 51.4741 4.85609 51.4318 4.92555L48.6865 8.46764C48.6585 8.50915 48.6585 8.55865 48.6865 8.61453L51.8102 15.1535C51.8382 15.2093 51.8525 15.2517 51.8525 15.2796C51.8525 15.3914 51.7759 15.4472 51.6218 15.4472H48.5196C48.3799 15.4472 48.2817 15.3842 48.2266 15.2588L46.3195 10.7947C46.3051 10.7668 46.2812 10.7492 46.246 10.742C46.2109 10.7348 46.1862 10.746 46.1726 10.7732L45.1875 12.1774C45.1595 12.2333 45.146 12.2756 45.146 12.3035V15.1958C45.146 15.266 45.1212 15.3251 45.0725 15.3738C45.023 15.4233 44.9639 15.4472 44.8945 15.4472H41.9184C41.8482 15.4472 41.7883 15.4225 41.7396 15.3738Z" fill="#2C303A"/>
<path d="M53.2042 15.3738C53.1547 15.3251 53.1307 15.266 53.1307 15.1958V4.86249C53.1307 4.79304 53.1547 4.73316 53.2042 4.68447C53.2529 4.63577 53.312 4.61102 53.3822 4.61102H56.3583C56.4277 4.61102 56.4876 4.63577 56.5363 4.68447C56.585 4.73396 56.6097 4.79304 56.6097 4.86249V15.1958C56.6097 15.266 56.585 15.3251 56.5363 15.3738C56.4868 15.4233 56.4277 15.4473 56.3583 15.4473H53.3822C53.3128 15.4473 53.2529 15.4225 53.2042 15.3738Z" fill="#2C303A"/>
<path d="M60.3934 14.7551C59.5345 14.1819 58.923 13.3924 58.5597 12.3865C58.2939 11.7159 58.1614 10.9128 58.1614 9.97643C58.1614 9.04001 58.2939 8.23692 58.5597 7.56634C58.9086 6.58841 59.5169 5.82363 60.3831 5.2712C61.2492 4.71957 62.2551 4.44336 63.4015 4.44336C64.5614 4.44336 65.5808 4.72995 66.4614 5.30234C67.3419 5.87552 67.935 6.60198 68.2424 7.48172C68.3398 7.73318 68.4029 8.00541 68.4308 8.29918C68.4308 8.45326 68.3542 8.54347 68.2001 8.57141L65.2871 9.01127H65.2448C65.1186 9.01127 65.0356 8.94182 64.9933 8.80212L64.951 8.61372C64.923 8.50195 64.8951 8.40456 64.8672 8.31994C64.741 8.0549 64.5494 7.83776 64.2908 7.67012C64.0321 7.50247 63.728 7.41865 63.3791 7.41865C62.6383 7.41865 62.1497 7.74676 61.9118 8.40376C61.7577 8.79493 61.6811 9.32581 61.6811 9.99639C61.6811 10.5975 61.7506 11.1212 61.8903 11.5683C62.1553 12.2811 62.6519 12.6372 63.3783 12.6372C63.7415 12.6372 64.0561 12.543 64.3219 12.3546C64.5869 12.1662 64.7761 11.8972 64.8879 11.5475C64.9015 11.5196 64.9087 11.478 64.9087 11.4214C64.9222 11.4078 64.9294 11.3799 64.9294 11.3375C64.9717 11.1699 65.0691 11.1004 65.2232 11.1284L68.1578 11.5898C68.2975 11.6177 68.3669 11.6944 68.3669 11.8205C68.3669 12.0297 68.3254 12.2604 68.2408 12.5119C67.9055 13.4906 67.3012 14.2514 66.4278 14.7966C65.5545 15.3419 64.5446 15.6141 63.3991 15.6141C62.2551 15.6149 61.2524 15.3283 60.3934 14.7551Z" fill="#2C303A"/>
<path d="M69.8879 15.3738C69.8392 15.3251 69.8145 15.266 69.8145 15.1958V1.02661C69.8145 0.957161 69.8384 0.897288 69.8879 0.848591C69.9366 0.799894 69.9965 0.775146 70.0659 0.775146H73.042C73.1115 0.775146 73.1713 0.799894 73.22 0.848591C73.2687 0.897288 73.2935 0.957161 73.2935 1.02661V7.5448C73.2935 7.58711 73.307 7.61105 73.335 7.61824C73.3629 7.62542 73.3909 7.61505 73.4188 7.58711L75.7036 4.7579C75.7874 4.66051 75.892 4.61101 76.0181 4.61101H79.4341C79.5738 4.61101 79.6432 4.65971 79.6432 4.7579C79.6432 4.79941 79.6225 4.85609 79.5801 4.92555L76.8348 8.46764C76.8068 8.50915 76.8068 8.55865 76.8348 8.61453L79.9578 15.1535C79.9857 15.2093 80.0001 15.2517 80.0001 15.2796C80.0001 15.3914 79.9234 15.4472 79.7693 15.4472H76.6671C76.5274 15.4472 76.4292 15.3842 76.3741 15.2588L74.467 10.7947C74.4526 10.7668 74.4287 10.7492 74.3935 10.742C74.3584 10.7348 74.3337 10.746 74.3201 10.7732L73.335 12.1774C73.307 12.2333 73.2935 12.2756 73.2935 12.3035V15.1958C73.2935 15.266 73.2687 15.3251 73.22 15.3738C73.1705 15.4233 73.1115 15.4472 73.042 15.4472H70.0659C69.9957 15.4472 69.9366 15.4225 69.8879 15.3738Z" fill="#2C303A"/>
<path d="M53.5817 3.13336C53.2392 2.79088 53.0684 2.35421 53.0684 1.82333C53.0684 1.27809 53.2392 0.838223 53.5817 0.502934C53.9241 0.167645 54.36 0 54.8917 0C55.4226 0 55.8592 0.167645 56.2017 0.502934C56.5442 0.838223 56.715 1.27809 56.715 1.82333C56.715 2.34064 56.5434 2.77412 56.2017 3.12298C55.8592 3.47264 55.4226 3.64747 54.8917 3.64747C54.36 3.64667 53.9241 3.47583 53.5817 3.13336Z" fill="url(#paint0_linear)"/>
<path d="M13.2983 3.13336C12.9559 2.79088 12.785 2.35421 12.785 1.82333C12.785 1.27809 12.9559 0.838223 13.2983 0.502934C13.6408 0.167645 14.0767 0 14.6084 0C15.1392 0 15.5759 0.167645 15.9184 0.502934C16.2609 0.838223 16.4317 1.27809 16.4317 1.82333C16.4317 2.34064 16.2601 2.77412 15.9184 3.12298C15.5759 3.47264 15.1392 3.64747 14.6084 3.64747C14.0775 3.64667 13.6408 3.47583 13.2983 3.13336Z" fill="#2C303A"/>
</g>
<defs>
<linearGradient id="paint0_linear" x1="54.8915" y1="0" x2="54.8915" y2="3.64694" gradientUnits="userSpaceOnUse">
<stop stop-color="#F9C746"/>
<stop offset="1" stop-color="#E49010"/>
</linearGradient>
<clipPath id="clip0">
<rect width="80" height="15.6149" fill="white"/>
</clipPath>
</defs>
</svg>
