<svg width="144" height="29" viewBox="0 0 144 29" fill="none" xmlns="http://www.w3.org/2000/svg">
<g clip-path="url(#clip0)">
<path d="M4.84828 27.1067C3.30068 26.44 2.10657 25.4844 1.26308 24.24C0.421027 22.9941 0 21.5543 0 19.9191V19.202C0 19.077 0.0431086 18.9692 0.1322 18.8816C0.219854 18.7939 0.326188 18.7494 0.45264 18.7494H5.69608C5.8211 18.7494 5.92887 18.7939 6.01652 18.8816C6.10418 18.9707 6.14872 19.077 6.14872 19.202V19.6547C6.14872 20.4852 6.564 21.208 7.39313 21.8245C8.22369 22.4409 9.34163 22.7484 10.7513 22.7484C11.8577 22.7484 12.6754 22.5099 13.2042 22.0314C13.733 21.5543 13.9959 20.9997 13.9959 20.3717C13.9959 19.8688 13.8393 19.4607 13.5246 19.146C13.2099 18.8313 12.7889 18.5683 12.2601 18.3542C11.7313 18.1401 10.9137 17.8455 9.80721 17.4676C9.65633 17.3915 9.50545 17.3354 9.35457 17.2981C9.20369 17.2607 9.06574 17.2162 8.93929 17.1659C7.30403 16.6385 5.88289 16.0666 4.67585 15.4487C3.46881 14.8323 2.43707 13.9773 1.58209 12.8837C0.728535 11.7888 0.30176 10.438 0.30176 8.82722C0.30176 7.26813 0.709855 5.90302 1.52748 4.73334C2.34511 3.56366 3.48318 2.66556 4.94168 2.03618C6.40019 1.40823 8.04838 1.09354 9.8848 1.09354C11.8218 1.09354 13.5634 1.44559 15.1096 2.1497C16.6557 2.8538 17.87 3.84818 18.7494 5.12994C19.6302 6.41314 20.0699 7.88458 20.0699 9.54426V10.0731C20.0699 10.1995 20.0254 10.3058 19.9377 10.3935C19.8486 10.4826 19.7423 10.5257 19.6173 10.5257H14.3738C14.2474 10.5257 14.1411 10.4826 14.0534 10.3935C13.9658 10.3058 13.9212 10.1995 13.9212 10.0731V9.80866C13.9212 8.92781 13.5304 8.14898 12.7515 7.4693C11.9713 6.79106 10.928 6.4505 9.6204 6.4505C8.63896 6.4505 7.87163 6.65167 7.3184 7.05402C6.76518 7.45637 6.48785 8.02253 6.48785 8.75106C6.48785 9.30429 6.66315 9.76412 7.01664 10.1277C7.3687 10.4927 7.91618 10.8318 8.65765 11.1465C9.39911 11.4612 10.5372 11.8693 12.0718 12.3722C13.8321 12.9757 15.203 13.5045 16.1844 13.9571C17.1658 14.4098 18.0898 15.1455 18.9577 16.1643C19.8256 17.1831 20.2596 18.5223 20.2596 20.182C20.2596 21.8173 19.8443 23.2255 19.0152 24.4081C18.1846 25.5907 17.0222 26.5018 15.5248 27.1426C14.0275 27.7835 12.286 28.1054 10.3001 28.1054C8.21075 28.1068 6.39444 27.7735 4.84828 27.1067Z" fill="#2C303A"/>
<path d="M23.2584 27.6729C23.1693 27.5852 23.1262 27.4789 23.1262 27.3524V8.7525C23.1262 8.62748 23.1693 8.51971 23.2584 8.43206C23.3461 8.3444 23.4524 8.29986 23.5789 8.29986H28.9358C29.0608 8.29986 29.1686 8.3444 29.2563 8.43206C29.3439 8.52115 29.3885 8.62748 29.3885 8.7525V27.3524C29.3885 27.4789 29.3439 27.5852 29.2563 27.6729C29.1672 27.762 29.0608 27.8051 28.9358 27.8051H23.5789C23.4524 27.8051 23.3461 27.7605 23.2584 27.6729Z" fill="#2C303A"/>
<path d="M44.8371 1.52749C44.9248 1.43984 45.0311 1.3953 45.1576 1.3953H50.5145C50.6395 1.3953 50.7473 1.43984 50.835 1.52749C50.9226 1.61515 50.9672 1.72292 50.9672 1.84794V27.351C50.9672 27.4774 50.9226 27.5838 50.835 27.6714C50.7459 27.7605 50.6395 27.8036 50.5145 27.8036H45.1576C45.0311 27.8036 44.9248 27.7605 44.8371 27.6714C44.7495 27.5838 44.7049 27.4774 44.7049 27.351V26.1066C44.7049 26.0319 44.679 25.9873 44.6302 25.9744C44.5799 25.9615 44.5296 25.9801 44.4793 26.0304C43.4734 27.4142 42.0264 28.1054 40.1411 28.1054C38.4312 28.1054 36.9152 27.5895 35.5946 26.5578C34.2741 25.5261 33.3372 24.1193 32.7839 22.3331C32.3816 20.9752 32.1804 19.5167 32.1804 17.9562C32.1804 16.1959 32.4448 14.611 32.9722 13.2027C33.5498 11.6436 34.4752 10.3863 35.7455 9.4293C37.0158 8.47373 38.5562 7.99522 40.3667 7.99522C42.1773 7.99522 43.5482 8.58581 44.4793 9.76842C44.5296 9.84458 44.5799 9.86901 44.6302 9.84458C44.6805 9.82015 44.7049 9.76842 44.7049 9.6937V1.84794C44.7049 1.72292 44.7495 1.61659 44.8371 1.52749ZM44.7049 18.0711C44.7049 16.6126 44.4649 15.4818 43.9879 14.6756C43.4591 13.7948 42.7176 13.3551 41.762 13.3551C40.7303 13.3551 39.963 13.8077 39.46 14.713C38.9571 15.568 38.7056 16.6874 38.7056 18.0711C38.7056 19.4046 38.9327 20.4852 39.3853 21.3158C39.9141 22.2714 40.7059 22.7499 41.762 22.7499C42.7679 22.7499 43.5352 22.2599 44.064 21.2784C44.4908 20.4737 44.7049 19.4046 44.7049 18.0711Z" fill="#2C303A"/>
<path d="M72.4354 19.3155C72.4096 19.6173 72.2457 19.7682 71.9454 19.7682H60.4383C60.388 19.7682 60.3377 19.7869 60.2874 19.8242C60.2371 19.8616 60.2242 19.9061 60.2501 19.9564C60.3003 20.2338 60.4254 20.5973 60.628 21.0499C60.9297 21.5773 61.3824 22.0055 61.9859 22.3331C62.5894 22.6608 63.3309 22.8231 64.2117 22.8231C65.7967 22.8231 67.0411 22.3087 67.9464 21.277C68.047 21.152 68.159 21.0887 68.2855 21.0887C68.4105 21.0887 68.5125 21.139 68.5873 21.2396L71.4928 24.559C71.5934 24.6351 71.6437 24.7357 71.6437 24.8607C71.6437 24.9613 71.5919 25.0619 71.4928 25.1625C70.6119 26.1181 69.5241 26.8481 68.2295 27.351C66.9333 27.8539 65.5194 28.1054 63.9847 28.1054C61.6956 28.1054 59.7529 27.6096 58.1564 26.6153C56.5585 25.6223 55.4075 24.2328 54.7048 22.4467C54.176 21.1893 53.9131 19.6173 53.9131 17.7306C53.9131 16.423 54.1143 15.1656 54.5166 13.9571C55.1704 12.0963 56.2453 10.632 57.7426 9.5615C59.2384 8.49241 61.0174 7.95786 63.0808 7.95786C64.7405 7.95786 66.2249 8.31566 67.5325 9.0327C68.8402 9.74974 69.9035 10.7441 70.7197 12.0129C71.5373 13.2832 72.0719 14.723 72.3233 16.3324C72.4469 17.0897 72.4843 18.0841 72.4354 19.3155ZM60.4757 15.203C60.3751 15.4803 60.3118 15.7447 60.2874 15.9947C60.2371 16.1212 60.2874 16.183 60.4383 16.183H65.7953C65.8958 16.183 65.9461 16.1327 65.9461 16.0321C65.9461 15.8309 65.8944 15.5795 65.7953 15.2777C65.6185 14.6498 65.2981 14.1712 64.8325 13.8436C64.3669 13.5174 63.7821 13.3536 63.078 13.3536C61.7703 13.3551 60.9024 13.9715 60.4757 15.203Z" fill="#2C303A"/>
<path d="M75.1312 27.6729C75.0436 27.5852 74.999 27.4789 74.999 27.3524V1.84794C74.999 1.72292 75.0421 1.61515 75.1312 1.52749C75.2189 1.43984 75.3267 1.3953 75.4517 1.3953H80.8086C80.9336 1.3953 81.0414 1.43984 81.1291 1.52749C81.2167 1.61515 81.2613 1.72292 81.2613 1.84794V13.5807C81.2613 13.6568 81.2857 13.6999 81.336 13.7129C81.3863 13.7258 81.4366 13.7071 81.4869 13.6568L85.5994 8.56426C85.7503 8.38895 85.9385 8.29986 86.1656 8.29986H92.3143C92.5658 8.29986 92.6908 8.38751 92.6908 8.56426C92.6908 8.63898 92.6534 8.741 92.5773 8.86602L87.6356 15.2418C87.5853 15.3165 87.5853 15.4056 87.6356 15.5062L93.2584 27.2763C93.3087 27.3769 93.3345 27.453 93.3345 27.5033C93.3345 27.7045 93.1966 27.8051 92.9193 27.8051H87.3353C87.0838 27.8051 86.9071 27.6915 86.8079 27.4659L83.375 19.4305C83.3492 19.3802 83.306 19.3486 83.2428 19.3357C83.1796 19.3227 83.1351 19.3428 83.1106 19.3917L81.3374 21.9193C81.2871 22.0199 81.2627 22.096 81.2627 22.1463V27.3524C81.2627 27.4789 81.2182 27.5852 81.1305 27.6729C81.0414 27.762 80.9351 27.8051 80.8101 27.8051H75.4531C75.3267 27.8051 75.2189 27.7605 75.1312 27.6729Z" fill="#2C303A"/>
<path d="M95.7672 27.6729C95.6781 27.5852 95.635 27.4789 95.635 27.3524V8.7525C95.635 8.62748 95.6781 8.51971 95.7672 8.43206C95.8549 8.3444 95.9612 8.29986 96.0877 8.29986H101.445C101.57 8.29986 101.677 8.3444 101.765 8.43206C101.853 8.52115 101.897 8.62748 101.897 8.7525V27.3524C101.897 27.4789 101.853 27.5852 101.765 27.6729C101.676 27.762 101.57 27.8051 101.445 27.8051H96.0877C95.9626 27.8051 95.8549 27.7605 95.7672 27.6729Z" fill="#2C303A"/>
<path d="M108.708 26.5592C107.162 25.5275 106.062 24.1063 105.408 22.2958C104.929 21.0887 104.691 19.6432 104.691 17.9576C104.691 16.2721 104.929 14.8265 105.408 13.6195C106.036 11.8592 107.131 10.4826 108.69 9.48822C110.249 8.49528 112.059 7.9981 114.123 7.9981C116.211 7.9981 118.046 8.51396 119.631 9.54426C121.216 10.576 122.283 11.8836 122.837 13.4671C123.012 13.9198 123.125 14.4098 123.176 14.9386C123.176 15.2159 123.038 15.3783 122.76 15.4286L117.517 16.2203H117.441C117.214 16.2203 117.064 16.0953 116.988 15.8439L116.912 15.5047C116.862 15.3036 116.811 15.1283 116.761 14.9759C116.534 14.4989 116.189 14.108 115.724 13.8063C115.258 13.5045 114.711 13.3536 114.083 13.3536C112.749 13.3536 111.87 13.9442 111.441 15.1268C111.164 15.8309 111.026 16.7865 111.026 17.9935C111.026 19.0756 111.151 20.0182 111.403 20.8229C111.88 22.1061 112.774 22.747 114.081 22.747C114.735 22.747 115.301 22.5774 115.78 22.2383C116.257 21.8992 116.597 21.4149 116.798 20.7855C116.823 20.7353 116.836 20.6605 116.836 20.5585C116.86 20.5341 116.873 20.4838 116.873 20.4076C116.949 20.1059 117.125 19.9809 117.402 20.0311L122.684 20.8617C122.936 20.912 123.061 21.0499 123.061 21.277C123.061 21.6535 122.986 22.0687 122.834 22.5214C122.23 24.2831 121.142 25.6525 119.57 26.6339C117.998 27.6154 116.181 28.1054 114.119 28.1054C112.059 28.1068 110.255 27.591 108.708 26.5592Z" fill="#2C303A"/>
<path d="M125.798 27.6729C125.711 27.5852 125.666 27.4789 125.666 27.3524V1.84794C125.666 1.72292 125.709 1.61515 125.798 1.52749C125.886 1.43984 125.994 1.3953 126.119 1.3953H131.476C131.601 1.3953 131.708 1.43984 131.796 1.52749C131.884 1.61515 131.928 1.72292 131.928 1.84794V13.5807C131.928 13.6568 131.953 13.6999 132.003 13.7129C132.053 13.7258 132.104 13.7071 132.154 13.6568L136.266 8.56426C136.417 8.38895 136.606 8.29986 136.833 8.29986H142.981C143.233 8.29986 143.358 8.38751 143.358 8.56426C143.358 8.63898 143.32 8.741 143.244 8.86602L138.303 15.2418C138.252 15.3165 138.252 15.4056 138.303 15.5062L143.924 27.2763C143.974 27.3769 144 27.453 144 27.5033C144 27.7045 143.862 27.8051 143.585 27.8051H138.001C137.749 27.8051 137.573 27.6915 137.473 27.4659L134.041 19.4305C134.015 19.3802 133.972 19.3486 133.908 19.3357C133.845 19.3227 133.801 19.3428 133.776 19.3917L132.003 21.9193C131.953 22.0199 131.928 22.096 131.928 22.1463V27.3524C131.928 27.4789 131.884 27.5852 131.796 27.6729C131.707 27.762 131.601 27.8051 131.476 27.8051H126.119C125.992 27.8051 125.886 27.7605 125.798 27.6729Z" fill="#2C303A"/>
<path d="M96.4469 5.64006C95.8305 5.0236 95.5229 4.23759 95.5229 3.28202C95.5229 2.30058 95.8305 1.50882 96.4469 0.905295C97.0634 0.301775 97.8479 1.43051e-05 98.8049 1.43051e-05C99.7605 1.43051e-05 100.547 0.301775 101.163 0.905295C101.779 1.50882 102.087 2.30058 102.087 3.28202C102.087 4.21316 101.778 4.99343 101.163 5.62138C100.547 6.25076 99.7605 6.56546 98.8049 6.56546C97.8479 6.56402 97.0634 6.25651 96.4469 5.64006Z" fill="url(#paint0_linear)"/>
<path d="M23.9369 5.64006C23.3204 5.0236 23.0129 4.23759 23.0129 3.28202C23.0129 2.30058 23.3204 1.50882 23.9369 0.905295C24.5534 0.301775 25.3379 1.43051e-05 26.2949 1.43051e-05C27.2505 1.43051e-05 28.0365 0.301775 28.653 0.905295C29.2694 1.50882 29.5769 2.30058 29.5769 3.28202C29.5769 4.21316 29.268 4.99343 28.653 5.62138C28.0365 6.25076 27.2505 6.56546 26.2949 6.56546C25.3394 6.56402 24.5534 6.25651 23.9369 5.64006Z" fill="#2C303A"/>
</g>
<defs>
<linearGradient id="paint0_linear" x1="98.8045" y1="1.43051e-05" x2="98.8045" y2="6.56451" gradientUnits="userSpaceOnUse">
<stop stop-color="#F9C746"/>
<stop offset="1" stop-color="#E49010"/>
</linearGradient>
<clipPath id="clip0">
<rect width="144" height="28.1068" fill="white"/>
</clipPath>
</defs>
</svg>
